<?xml version="1.0" encoding="UTF-8" standalone="no"?><svg xmlns="http://www.w3.org/2000/svg" xmlns:xlink="http://www.w3.org/1999/xlink" contentScriptType="application/ecmascript" contentStyleType="text/css" height="1295px" preserveAspectRatio="none" style="width:998px;height:1295px;" version="1.1" viewBox="0 0 998 1295" width="998px" zoomAndPan="magnify"><defs><filter height="300%" id="ftfdl28iz0f8i" width="300%" x="-1" y="-1"><feGaussianBlur result="blurOut" stdDeviation="2.0"/><feColorMatrix in="blurOut" result="blurOut2" type="matrix" values="0 0 0 0 0 0 0 0 0 0 0 0 0 0 0 0 0 0 .4 0"/><feOffset dx="4.0" dy="4.0" in="blurOut2" result="blurOut3"/><feBlend in="SourceGraphic" in2="blurOut3" mode="normal"/></filter></defs><g><ellipse cx="602" cy="18" fill="#000000" filter="url(#ftfdl28iz0f8i)" rx="10" ry="10" style="stroke: none; stroke-width: 1.0;"/><rect fill="#FEFECE" filter="url(#ftfdl28iz0f8i)" height="33.9688" rx="12.5" ry="12.5" style="stroke: #A80036; stroke-width: 1.5;" width="211" x="496.5" y="69"/><text fill="#000000" font-family="sans-serif" font-size="12" lengthAdjust="spacingAndGlyphs" textLength="191" x="506.5" y="90.1387">School Admin Logged 1st Time</text><rect fill="#FEFECE" filter="url(#ftfdl28iz0f8i)" height="33.9688" rx="12.5" ry="12.5" style="stroke: #A80036; stroke-width: 1.5;" width="136" x="534" y="144"/><text fill="#000000" font-family="sans-serif" font-size="12" lengthAdjust="spacingAndGlyphs" textLength="116" x="544" y="165.1387">Welcome Message</text><polygon fill="#FEFECE" filter="url(#ftfdl28iz0f8i)" points="602,219,614,231,602,243,590,231,602,219" style="stroke: #A80036; stroke-width: 1.5;"/><rect fill="#FEFECE" filter="url(#ftfdl28iz0f8i)" height="33.9688" rx="12.5" ry="12.5" style="stroke: #A80036; stroke-width: 1.5;" width="147" x="530.5" y="464"/><text fill="#000000" font-family="sans-serif" font-size="12" lengthAdjust="spacingAndGlyphs" textLength="127" x="540.5" y="485.1387">Individual Data Form</text><path d="M307.5,473.5 L307.5,488.6328 A5,5 0 0 0 312.5,493.6328 L505.5,493.6328 A5,5 0 0 0 510.5,488.6328 L510.5,486.5 L530.3721,481 L510.5,478.5 L510.5,478.5 L500.5,468.5 L312.5,468.5 A5,5 0 0 0 307.5,473.5 " fill="#FBFB77" filter="url(#ftfdl28iz0f8i)" style="stroke: #A80036; stroke-width: 1.0;"/><path d="M500.5,468.5 L500.5,476 A2.5,2.5 0 0 0 503,478.5 L510.5,478.5 L500.5,468.5 " fill="#FBFB77" style="stroke: #A80036; stroke-width: 1.0;"/><text fill="#000000" font-family="sans-serif" font-size="13" lengthAdjust="spacingAndGlyphs" textLength="182" x="313.5" y="485.5669">School Admin Personal Data</text><polygon fill="#FEFECE" filter="url(#ftfdl28iz0f8i)" points="604,539,616,551,604,563,592,551,604,539" style="stroke: #A80036; stroke-width: 1.5;"/><rect fill="#FEFECE" filter="url(#ftfdl28iz0f8i)" height="33.9688" rx="12.5" ry="12.5" style="stroke: #A80036; stroke-width: 1.5;" width="111" x="501.5" y="617"/><text fill="#000000" font-family="sans-serif" font-size="12" lengthAdjust="spacingAndGlyphs" textLength="91" x="511.5" y="638.1387">Startup Wizard</text><rect fill="#FEFECE" filter="url(#ftfdl28iz0f8i)" height="33.9688" rx="12.5" ry="12.5" style="stroke: #A80036; stroke-width: 1.5;" width="133" x="482.5" y="740.5"/><text fill="#000000" font-family="sans-serif" font-size="12" lengthAdjust="spacingAndGlyphs" textLength="113" x="492.5" y="761.6387">School Info Wizard</text><path d="M281.5,697 L281.5,818.0625 A5,5 0 0 0 286.5,823.0625 L457.5,823.0625 A5,5 0 0 0 462.5,818.0625 L462.5,761.5 L482.4927,757.5 L462.5,753.5 L462.5,702 L452.5,692 L286.5,692 A5,5 0 0 0 281.5,697 " fill="#FBFB77" filter="url(#ftfdl28iz0f8i)" style="stroke: #A80036; stroke-width: 1.0;"/><path d="M452.5,692 L452.5,699.5 A2.5,2.5 0 0 0 455,702 L462.5,702 L452.5,692 " fill="#FBFB77" style="stroke: #A80036; stroke-width: 1.0;"/><text fill="#000000" font-family="sans-serif" font-size="13" lengthAdjust="spacingAndGlyphs" textLength="86" x="287.5" y="709.0669">School Name</text><text fill="#000000" font-family="sans-serif" font-size="13" lengthAdjust="spacingAndGlyphs" textLength="31" x="287.5" y="724.1997">Logo</text><text fill="#000000" font-family="sans-serif" font-size="13" lengthAdjust="spacingAndGlyphs" textLength="77" x="287.5" y="739.3325">Contact Info</text><text fill="#000000" font-family="sans-serif" font-size="13" lengthAdjust="spacingAndGlyphs" textLength="39" x="319.5" y="754.4653">Email,</text><text fill="#000000" font-family="sans-serif" font-size="13" lengthAdjust="spacingAndGlyphs" textLength="100" x="319.5" y="769.5981">Phone Number,</text><text fill="#000000" font-family="sans-serif" font-size="13" lengthAdjust="spacingAndGlyphs" textLength="56" x="319.5" y="784.731">Address,</text><text fill="#000000" font-family="sans-serif" font-size="13" lengthAdjust="spacingAndGlyphs" textLength="74" x="319.5" y="799.8638">Website etc</text><text fill="#000000" font-family="sans-serif" font-size="13" lengthAdjust="spacingAndGlyphs" textLength="160" x="287.5" y="814.9966">Branded URL (if possible)</text><rect fill="#FEFECE" filter="url(#ftfdl28iz0f8i)" height="33.9688" rx="12.5" ry="12.5" style="stroke: #A80036; stroke-width: 1.5;" width="126" x="486" y="867"/><text fill="#000000" font-family="sans-serif" font-size="12" lengthAdjust="spacingAndGlyphs" textLength="106" x="496" y="888.1387">Security Settings</text><path d="M250.5,869 L250.5,899.2656 A5,5 0 0 0 255.5,904.2656 L460.5,904.2656 A5,5 0 0 0 465.5,899.2656 L465.5,888 L485.958,884 L465.5,880 L465.5,874 L455.5,864 L255.5,864 A5,5 0 0 0 250.5,869 " fill="#FBFB77" filter="url(#ftfdl28iz0f8i)" style="stroke: #A80036; stroke-width: 1.0;"/><path d="M455.5,864 L455.5,871.5 A2.5,2.5 0 0 0 458,874 L465.5,874 L455.5,864 " fill="#FBFB77" style="stroke: #A80036; stroke-width: 1.0;"/><text fill="#000000" font-family="sans-serif" font-size="13" lengthAdjust="spacingAndGlyphs" textLength="194" x="256.5" y="881.0669">Backup and Recovery Settings</text><text fill="#000000" font-family="sans-serif" font-size="13" lengthAdjust="spacingAndGlyphs" textLength="115" x="256.5" y="896.1997">Set Access Levels</text><rect fill="#FEFECE" filter="url(#ftfdl28iz0f8i)" height="33.9688" rx="12.5" ry="12.5" style="stroke: #A80036; stroke-width: 1.5;" width="116" x="491" y="948"/><text fill="#000000" font-family="sans-serif" font-size="12" lengthAdjust="spacingAndGlyphs" textLength="96" x="501" y="969.1387">Add other uses</text><path d="M147,950 L147,980.2656 A5,5 0 0 0 152,985.2656 L466,985.2656 A5,5 0 0 0 471,980.2656 L471,969 L490.9446,965 L471,961 L471,955 L461,945 L152,945 A5,5 0 0 0 147,950 " fill="#FBFB77" filter="url(#ftfdl28iz0f8i)" style="stroke: #A80036; stroke-width: 1.0;"/><path d="M461,945 L461,952.5 A2.5,2.5 0 0 0 463.5,955 L471,955 L461,945 " fill="#FBFB77" style="stroke: #A80036; stroke-width: 1.0;"/><text fill="#000000" font-family="sans-serif" font-size="13" lengthAdjust="spacingAndGlyphs" textLength="114" x="153" y="962.0669">Add others wizard</text><text fill="#000000" font-family="sans-serif" font-size="13" lengthAdjust="spacingAndGlyphs" textLength="303" x="153" y="977.1997">https://docs.moodle.org/37/en/Add_a_new_user</text><rect fill="#FEFECE" filter="url(#ftfdl28iz0f8i)" height="33.9688" rx="12.5" ry="12.5" style="stroke: #A80036; stroke-width: 1.5;" width="107" x="501.5" y="1026"/><text fill="#000000" font-family="sans-serif" font-size="12" lengthAdjust="spacingAndGlyphs" textLength="87" x="511.5" y="1047.1387">Confirm Users</text><rect fill="#FEFECE" filter="url(#ftfdl28iz0f8i)" height="33.9688" rx="12.5" ry="12.5" style="stroke: #A80036; stroke-width: 1.5;" width="187" x="294.5" y="1026"/><text fill="#000000" font-family="sans-serif" font-size="12" lengthAdjust="spacingAndGlyphs" textLength="167" x="304.5" y="1047.1387">Academic Structure Wizard</text><path d="M6,1035.5 L6,1050.6328 A5,5 0 0 0 11,1055.6328 L269,1055.6328 A5,5 0 0 0 274,1050.6328 L274,1048.5 L294.1807,1043 L274,1040.5 L274,1040.5 L264,1030.5 L11,1030.5 A5,5 0 0 0 6,1035.5 " fill="#FBFB77" filter="url(#ftfdl28iz0f8i)" style="stroke: #A80036; stroke-width: 1.0;"/><path d="M264,1030.5 L264,1038 A2.5,2.5 0 0 0 266.5,1040.5 L274,1040.5 L264,1030.5 " fill="#FBFB77" style="stroke: #A80036; stroke-width: 1.0;"/><text fill="#000000" font-family="sans-serif" font-size="13" lengthAdjust="spacingAndGlyphs" textLength="247" x="12" y="1047.5669">Total number of classes (Check boxes)</text><rect fill="#FEFECE" filter="url(#ftfdl28iz0f8i)" height="33.9688" rx="12.5" ry="12.5" style="stroke: #A80036; stroke-width: 1.5;" width="44" x="205" y="1101"/><text fill="#000000" font-family="sans-serif" font-size="12" lengthAdjust="spacingAndGlyphs" textLength="24" x="215" y="1122.1387">CSV</text><rect fill="#FEFECE" filter="url(#ftfdl28iz0f8i)" height="33.9688" rx="12.5" ry="12.5" style="stroke: #A80036; stroke-width: 1.5;" width="65" x="269.5" y="1101"/><text fill="#000000" font-family="sans-serif" font-size="12" lengthAdjust="spacingAndGlyphs" textLength="45" x="279.5" y="1122.1387">Manual</text><rect fill="#FEFECE" filter="url(#ftfdl28iz0f8i)" height="33.9688" rx="12.5" ry="12.5" style="stroke: #A80036; stroke-width: 1.5;" width="85" x="354.5" y="1101"/><text fill="#000000" font-family="sans-serif" font-size="12" lengthAdjust="spacingAndGlyphs" textLength="65" x="364.5" y="1122.1387">Smart Add</text><rect fill="#FEFECE" filter="url(#ftfdl28iz0f8i)" height="33.9688" rx="12.5" ry="12.5" style="stroke: #A80036; stroke-width: 1.5;" width="87" x="459.5" y="1101"/><text fill="#000000" font-family="sans-serif" font-size="12" lengthAdjust="spacingAndGlyphs" textLength="67" x="469.5" y="1122.1387">Enrollment</text><rect fill="#FEFECE" filter="url(#ftfdl28iz0f8i)" height="33.9688" rx="12.5" ry="12.5" style="stroke: #A80036; stroke-width: 1.5;" width="44" x="406" y="1176"/><text fill="#000000" font-family="sans-serif" font-size="12" lengthAdjust="spacingAndGlyphs" textLength="24" x="416" y="1197.1387">CSV</text><rect fill="#FEFECE" filter="url(#ftfdl28iz0f8i)" height="33.9688" rx="12.5" ry="12.5" style="stroke: #A80036; stroke-width: 1.5;" width="65" x="470.5" y="1176"/><text fill="#000000" font-family="sans-serif" font-size="12" lengthAdjust="spacingAndGlyphs" textLength="45" x="480.5" y="1197.1387">Manual</text><rect fill="#FEFECE" filter="url(#ftfdl28iz0f8i)" height="33.9688" rx="12.5" ry="12.5" style="stroke: #A80036; stroke-width: 1.5;" width="60" x="556" y="1176"/><text fill="#000000" font-family="sans-serif" font-size="12" lengthAdjust="spacingAndGlyphs" textLength="40" x="566" y="1197.1387">Import</text><rect fill="#FEFECE" filter="url(#ftfdl28iz0f8i)" height="33.9688" rx="12.5" ry="12.5" style="stroke: #A80036; stroke-width: 1.5;" width="88" x="500" y="1251"/><text fill="#000000" font-family="sans-serif" font-size="12" lengthAdjust="spacingAndGlyphs" textLength="68" x="510" y="1272.1387">HomePage</text><rect fill="#FEFECE" filter="url(#ftfdl28iz0f8i)" height="33.9688" rx="12.5" ry="12.5" style="stroke: #A80036; stroke-width: 1.5;" width="164" x="615" y="297"/><text fill="#000000" font-family="sans-serif" font-size="12" lengthAdjust="spacingAndGlyphs" textLength="144" x="625" y="318.1387">Form with Data Missing</text><polygon fill="#FEFECE" filter="url(#ftfdl28iz0f8i)" points="662,385.5,674,397.5,662,409.5,650,397.5,662,385.5" style="stroke: #A80036; stroke-width: 1.5;"/><path d="M693.5,390 L693.5,393.5 L674.0996,397.5 L693.5,401.5 L693.5,405.1328 A5,5 0 0 0 698.5,410.1328 L979.5,410.1328 A5,5 0 0 0 984.5,405.1328 L984.5,395 L974.5,385 L698.5,385 A5,5 0 0 0 693.5,390 " fill="#FBFB77" filter="url(#ftfdl28iz0f8i)" style="stroke: #A80036; stroke-width: 1.0;"/><path d="M974.5,385 L974.5,392.5 A2.5,2.5 0 0 0 977,395 L984.5,395 L974.5,385 " fill="#FBFB77" style="stroke: #A80036; stroke-width: 1.0;"/><text fill="#000000" font-family="sans-serif" font-size="13" lengthAdjust="spacingAndGlyphs" textLength="270" x="699.5" y="402.0669">"Remind Admin to complete Identity Data"</text><!--link start to 1ST--><path d="M602,28.0336 C602,37.4082 602,51.7285 602,63.7898 " fill="none" id="start-1ST" style="stroke: #75A4FF; stroke-width: 1.0;"/><polygon fill="#75A4FF" points="602,68.7995,606,59.7995,602,63.7995,598,59.7995,602,68.7995" style="stroke: #75A4FF; stroke-width: 1.0;"/><!--link 1ST to Welcome--><path d="M602,103.0187 C602,113.5877 602,127.2879 602,138.7171 " fill="none" id="1ST-Welcome" style="stroke: #75A4FF; stroke-width: 1.0;"/><polygon fill="#75A4FF" points="602,143.7891,606,134.7891,602,138.7891,598,134.7891,602,143.7891" style="stroke: #75A4FF; stroke-width: 1.0;"/><!--link Welcome to #7--><path d="M602,178.3034 C602,189.1588 602,203.0963 602,213.9108 " fill="none" id="Welcome-#7" style="stroke: #75A4FF; stroke-width: 1.0;"/><polygon fill="#75A4FF" points="602,218.9417,606,209.9417,602,213.9417,598,209.9417,602,218.9417" style="stroke: #75A4FF; stroke-width: 1.0;"/><text fill="#000000" font-family="sans-serif" font-size="11" lengthAdjust="spacingAndGlyphs" textLength="124" x="458.2375" y="211.5243">Identity Info Complete</text><!--link #7 to IDForm--><path d="M602.0965,243.058 C602.411,282.3801 603.4104,407.3047 603.8211,458.6428 " fill="none" id="#7-IDForm" style="stroke: #75A4FF; stroke-width: 1.0;"/><polygon fill="#75A4FF" points="603.8613,463.6654,607.7892,454.6337,603.8213,458.6656,599.7894,454.6977,603.8613,463.6654" style="stroke: #75A4FF; stroke-width: 1.0;"/><text fill="#000000" font-family="sans-serif" font-size="11" lengthAdjust="spacingAndGlyphs" textLength="20" x="605" y="362.2104">yes</text><!--link IDForm to #15--><path d="M604,498.3034 C604,509.1588 604,523.0963 604,533.9108 " fill="none" id="IDForm-#15" style="stroke: #75A4FF; stroke-width: 1.0;"/><polygon fill="#75A4FF" points="604,538.9417,608,529.9417,604,533.9417,600,529.9417,604,538.9417" style="stroke: #75A4FF; stroke-width: 1.0;"/><text fill="#000000" font-family="sans-serif" font-size="11" lengthAdjust="spacingAndGlyphs" textLength="42" x="551.7625" y="528.5449">Wizard?</text><!--link #15 to SW--><path d="M599.4934,558.9584 C592.6469,571.049 579.3762,594.4846 569.4781,611.9642 " fill="none" id="#15-SW" style="stroke: #75A4FF; stroke-width: 1.0;"/><polygon fill="#75A4FF" points="566.7839,616.722,574.6994,610.8616,569.2477,612.3712,567.7381,606.9195,566.7839,616.722" style="stroke: #75A4FF; stroke-width: 1.0;"/><text fill="#000000" font-family="sans-serif" font-size="11" lengthAdjust="spacingAndGlyphs" textLength="20" x="586" y="594.2104">yes</text><!--link SW to SchoolInfo--><path d="M555.8876,651.1721 C554.4667,673.1081 552.0047,711.1148 550.4414,735.2489 " fill="none" id="SW-SchoolInfo" style="stroke: #75A4FF; stroke-width: 1.0;"/><polygon fill="#75A4FF" points="550.1029,740.4737,554.6764,731.7512,550.4262,735.4842,546.6932,731.2339,550.1029,740.4737" style="stroke: #75A4FF; stroke-width: 1.0;"/><!--link SchoolInfo to SecuritySettings--><path d="M549,774.5604 C549,797.1005 549,836.8483 549,861.733 " fill="none" id="SchoolInfo-SecuritySettings" style="stroke: #75A4FF; stroke-width: 1.0;"/><polygon fill="#75A4FF" points="549,866.8059,553,857.8059,549,861.8059,545,857.8059,549,866.8059" style="stroke: #75A4FF; stroke-width: 1.0;"/><!--link SecuritySettings to AddOthers--><path d="M549,901.178 C549,913.3131 549,929.6859 549,942.8097 " fill="none" id="SecuritySettings-AddOthers" style="stroke: #75A4FF; stroke-width: 1.0;"/><polygon fill="#75A4FF" points="549,947.8467,553,938.8467,549,942.8467,545,938.8467,549,947.8467" style="stroke: #75A4FF; stroke-width: 1.0;"/><!--link AddOthers to Confirm Users--><path d="M550.3316,982.3107 C551.2016,993.6209 552.3461,1008.4995 553.2842,1020.694 " fill="none" id="AddOthers-Confirm Users" style="stroke: #75A4FF; stroke-width: 1.0;"/><polygon fill="#75A4FF" points="553.6721,1025.7377,556.9699,1016.4574,553.2885,1020.7524,548.9935,1017.0711,553.6721,1025.7377" style="stroke: #75A4FF; stroke-width: 1.0;"/><!--link AddOthers to AcademicStructureWizard--><path d="M513.6679,982.1174 C488.3971,994.3604 454.3458,1010.8573 428.063,1023.5906 " fill="none" id="AddOthers-AcademicStructureWizard" style="stroke: #75A4FF; stroke-width: 1.0;"/><polygon fill="#75A4FF" points="423.2497,1025.9225,433.0932,1025.5981,427.7494,1023.7424,429.6051,1018.3986,423.2497,1025.9225" style="stroke: #75A4FF; stroke-width: 1.0;"/><!--link AcademicStructureWizard to AcademicCSV--><path d="M348.1655,1060.1015 C322.5094,1071.3142 288.5503,1086.527 259,1101 C257.3192,1101.8232 255.597,1102.6846 253.8655,1103.5643 " fill="none" id="AcademicStructureWizard-AcademicCSV" style="stroke: #75A4FF; stroke-width: 1.0;"/><polygon fill="#75A4FF" points="249.2831,1105.9218,259.116,1105.3613,253.7292,1103.6344,255.4562,1098.2476,249.2831,1105.9218" style="stroke: #75A4FF; stroke-width: 1.0;"/><!--link AcademicStructureWizard to AcademicManual--><path d="M368.4853,1060.0187 C355.8201,1071.0638 339.2339,1085.5285 325.7965,1097.2472 " fill="none" id="AcademicStructureWizard-AcademicManual" style="stroke: #75A4FF; stroke-width: 1.0;"/><polygon fill="#75A4FF" points="321.7352,1100.7891,331.1472,1097.8884,325.5035,1097.5028,325.8891,1091.8591,321.7352,1100.7891" style="stroke: #75A4FF; stroke-width: 1.0;"/><!--link AcademicStructureWizard to AcademicSmart--><path d="M390.0422,1060.0187 C391.3105,1070.5877 392.9546,1084.2879 394.326,1095.7171 " fill="none" id="AcademicStructureWizard-AcademicSmart" style="stroke: #75A4FF; stroke-width: 1.0;"/><polygon fill="#75A4FF" points="394.9347,1100.7891,397.8339,1091.3766,394.339,1095.8247,389.8909,1092.3298,394.9347,1100.7891" style="stroke: #75A4FF; stroke-width: 1.0;"/><!--link AcademicStructureWizard to Enrollment--><path d="M414.0953,1060.0187 C431.3232,1071.2543 453.9768,1086.0283 472.1047,1097.8509 " fill="none" id="AcademicStructureWizard-Enrollment" style="stroke: #75A4FF; stroke-width: 1.0;"/><polygon fill="#75A4FF" points="476.6099,1100.7891,471.2564,1092.5223,472.4218,1098.0578,466.8863,1099.2232,476.6099,1100.7891" style="stroke: #75A4FF; stroke-width: 1.0;"/><!--link Enrollment to StudentCSVAdd--><path d="M485.9813,1135.0187 C474.9362,1146.0638 460.4715,1160.5285 448.7528,1172.2472 " fill="none" id="Enrollment-StudentCSVAdd" style="stroke: #75A4FF; stroke-width: 1.0;"/><polygon fill="#75A4FF" points="445.2109,1175.7891,454.4033,1172.2536,448.7464,1172.2536,448.7464,1166.5967,445.2109,1175.7891" style="stroke: #75A4FF; stroke-width: 1.0;"/><!--link Enrollment to StudentManualAdd--><path d="M503,1135.0187 C503,1145.5877 503,1159.2879 503,1170.7171 " fill="none" id="Enrollment-StudentManualAdd" style="stroke: #75A4FF; stroke-width: 1.0;"/><polygon fill="#75A4FF" points="503,1175.7891,507,1166.7891,503,1170.7891,499,1166.7891,503,1175.7891" style="stroke: #75A4FF; stroke-width: 1.0;"/><!--link Enrollment to StudentImportAdd--><path d="M521.834,1135.0187 C534.0573,1146.0638 550.0649,1160.5285 563.0336,1172.2472 " fill="none" id="Enrollment-StudentImportAdd" style="stroke: #75A4FF; stroke-width: 1.0;"/><polygon fill="#75A4FF" points="566.9532,1175.7891,562.9574,1166.7873,563.2434,1172.4369,557.5938,1172.7229,566.9532,1175.7891" style="stroke: #75A4FF; stroke-width: 1.0;"/><!--link StudentCSVAdd to HomePage--><path d="M450.0918,1207.2835 C467.9368,1218.8212 493.2585,1235.193 513.1117,1248.0291 " fill="none" id="StudentCSVAdd-HomePage" style="stroke: #75A4FF; stroke-width: 1.0;"/><polygon fill="#75A4FF" points="517.5168,1250.8772,512.1308,1242.6315,513.318,1248.1624,507.7871,1249.3496,517.5168,1250.8772" style="stroke: #75A4FF; stroke-width: 1.0;"/><!--link StudentManualAdd to HomePage--><path d="M512.3035,1210.0187 C518.1854,1220.7782 525.8412,1234.7826 532.1552,1246.3326 " fill="none" id="StudentManualAdd-HomePage" style="stroke: #75A4FF; stroke-width: 1.0;"/><polygon fill="#75A4FF" points="534.5914,1250.7891,533.7841,1240.9734,532.193,1246.4019,526.7645,1244.8108,534.5914,1250.7891" style="stroke: #75A4FF; stroke-width: 1.0;"/><!--link StudentImportAdd to HomePage--><path d="M576.4695,1210.0187 C570.4442,1220.7782 562.6017,1234.7826 556.1337,1246.3326 " fill="none" id="StudentImportAdd-HomePage" style="stroke: #75A4FF; stroke-width: 1.0;"/><polygon fill="#75A4FF" points="553.6381,1250.7891,561.5255,1244.8909,556.0811,1246.4266,554.5454,1240.9821,553.6381,1250.7891" style="stroke: #75A4FF; stroke-width: 1.0;"/><!--link #15 to HomePage--><path d="M609.979,557.299 C621.7942,570.4368 647,602.1918 647,634 C647,634 647,634 647,1193 C647,1222.1538 619.6997,1241.1679 593.2092,1252.7555 " fill="none" id="#15-HomePage" style="stroke: #75A4FF; stroke-width: 1.0;"/><polygon fill="#75A4FF" points="588.279,1254.8335,598.126,1255.0238,592.8865,1252.8915,595.0188,1247.6519,588.279,1254.8335" style="stroke: #75A4FF; stroke-width: 1.0;"/><text fill="#000000" font-family="sans-serif" font-size="11" lengthAdjust="spacingAndGlyphs" textLength="14" x="648" y="969.2104">no</text><!--link #7 to MissForm--><path d="M608.5297,236.7049 C621.7107,248.2209 652.0683,274.7439 673.5344,293.4984 " fill="none" id="#7-MissForm" style="stroke: #75A4FF; stroke-width: 1.0;"/><polygon fill="#75A4FF" points="677.4329,296.9046,673.287,287.9709,673.6675,293.6149,668.0235,293.9955,677.4329,296.9046" style="stroke: #75A4FF; stroke-width: 1.0;"/><text fill="#000000" font-family="sans-serif" font-size="11" lengthAdjust="spacingAndGlyphs" textLength="14" x="653" y="274.2104">no</text><!--link MissForm to #63--><path d="M689.748,331.3013 C683.1855,346.9575 673.6543,369.6961 667.6444,384.0341 " fill="none" id="MissForm-#63" style="stroke: #75A4FF; stroke-width: 1.0;"/><polygon fill="#75A4FF" points="665.6015,388.9078,672.7697,382.1538,667.5344,384.2965,665.3916,379.0612,665.6015,388.9078" style="stroke: #75A4FF; stroke-width: 1.0;"/><text fill="#000000" font-family="sans-serif" font-size="11" lengthAdjust="spacingAndGlyphs" textLength="99" x="543.0785" y="379.8459">Forms completed</text><!--link #63 to IDForm--><path d="M657.055,404.6192 C648.721,416.6172 631.5599,441.3233 619.0037,459.3999 " fill="none" id="#63-IDForm" style="stroke: #75A4FF; stroke-width: 1.0;"/><polygon fill="#75A4FF" points="615.9188,463.8411,624.3384,458.7312,618.7712,459.7346,617.7679,454.1674,615.9188,463.8411" style="stroke: #75A4FF; stroke-width: 1.0;"/><text fill="#000000" font-family="sans-serif" font-size="11" lengthAdjust="spacingAndGlyphs" textLength="20" x="639" y="441.2104">yes</text><!--
@startuml
skinparam roundcorner 10
skinparam BoxPadding 10
skinparam headerFontColor #75A4FF
skinparam headerFontSize 18
skinparam sequence {
  ArrowColor #75A4FF
  GroupBackgroundColor #75A4FF
  GroupBorderColor #EDECFF
  GroupHeaderFontColor #ffffff
  BoxBorderColor #75A4FF
  BoxBackgroundColor #EDECFF
  BoxPadding 10

  ParticipantBorderColor #75A4FF
  ParticipantBackgroundColor #ffffff
  ParticipantPadding 10

  ActorBorderColor #75A4FF
  ActorBackgroundColor #ffffff
  EntityBorderColor #75A4FF
  EntityBackgroundColor #ffffff
  DatabaseBorderColor #75A4FF
  DatabaseBackgroundColor #ffffff

  LifeLineBorderColor #878787
}
(*) - -> "School Admin Logged 1st Time" as 1ST
1ST - -> "Welcome Message" as Welcome

if "Identity Info Complete" then
	- -> [yes] "Individual Data Form" as IDForm
	
	note left: School Admin Personal Data
	
	if "Wizard?" then
		- -> [yes] "Startup Wizard" as SW
		SW - -> "School Info Wizard" as SchoolInfo
		note left 
			School Name
			Logo
			Contact Info 
				Email, 
				Phone Number, 
				Address, 
				Website etc
			Branded URL (if possible)
		endnote

		SchoolInfo - -> "Security Settings" as SecuritySettings
		note left
			Backup and Recovery Settings
			Set Access Levels
		endnote
		
		SecuritySettings - -> "Add other uses" as AddOthers		
		note left 
			Add others wizard
			https://docs.moodle.org/37/en/Add_a_new_user
		endnote
		
		AddOthers - -> "Confirm Users"
		AddOthers - -> "Academic Structure Wizard" as AcademicStructureWizard
		
		note left: Total number of classes (Check boxes)
		
		AcademicStructureWizard - -> "CSV" as AcademicCSV 
		AcademicStructureWizard - -> "Manual" as AcademicManual
		AcademicStructureWizard - -> "Smart Add" as AcademicSmart
		
		AcademicStructureWizard - -> "Enrollment" as Enrollment
		
		Enrollment - -> "CSV" as StudentCSVAdd
		Enrollment - -> "Manual" as StudentManualAdd
		Enrollment - -> "Import" as StudentImportAdd
		StudentCSVAdd - -> HomePage
		StudentManualAdd - -> HomePage
		StudentImportAdd - -> HomePage
		
	else
		- ->[no] HomePage
	endif
else
	- -> [no] "Form with Data Missing" as MissForm
	if "Forms completed" then
		note right: "Remind Admin to complete Identity Data"
		- -> [yes] IDForm
	endif





@enduml

PlantUML version 1.2018.13(Mon Nov 26 12:11:51 EST 2018)
(GPL source distribution)
Java Runtime: OpenJDK Runtime Environment
JVM: OpenJDK 64-Bit Server VM
Java Version: 11.0.4+11-post-Ubuntu-1ubuntu219.04
Operating System: Linux
OS Version: 5.0.0-24-generic
Default Encoding: UTF-8
Language: en
Country: US
--></g></svg>