<?xml version="1.0" encoding="UTF-8" standalone="no"?><svg xmlns="http://www.w3.org/2000/svg" xmlns:xlink="http://www.w3.org/1999/xlink" contentScriptType="application/ecmascript" contentStyleType="text/css" height="670px" preserveAspectRatio="none" style="width:1152px;height:670px;" version="1.1" viewBox="0 0 1152 670" width="1152px" zoomAndPan="magnify"><defs><filter height="300%" id="fjb8kyxtf2mk9" width="300%" x="-1" y="-1"><feGaussianBlur result="blurOut" stdDeviation="2.0"/><feColorMatrix in="blurOut" result="blurOut2" type="matrix" values="0 0 0 0 0 0 0 0 0 0 0 0 0 0 0 0 0 0 .4 0"/><feOffset dx="4.0" dy="4.0" in="blurOut2" result="blurOut3"/><feBlend in="SourceGraphic" in2="blurOut3" mode="normal"/></filter></defs><g><text fill="#000000" font-family="sans-serif" font-size="14" font-weight="bold" lengthAdjust="spacingAndGlyphs" textLength="374" x="394.75" y="22.9951">School Service Startup participant xDemicTeam</text><rect fill="#FFFFFF" filter="url(#fjb8kyxtf2mk9)" height="30.2969" rx="5" ry="5" style="stroke: #75A4FF; stroke-width: 1.5;" width="80" x="782" y="197.8594"/><text fill="#000000" font-family="sans-serif" font-size="14" lengthAdjust="spacingAndGlyphs" textLength="66" x="789" y="217.8545">ClientApp</text><line style="stroke: #878787; stroke-width: 1.0; stroke-dasharray: 5.0,5.0;" x1="56" x2="56" y1="116.5938" y2="583.4844"/><line style="stroke: #878787; stroke-width: 1.0; stroke-dasharray: 5.0,5.0;" x1="226.5" x2="226.5" y1="116.5938" y2="583.4844"/><line style="stroke: #878787; stroke-width: 1.0; stroke-dasharray: 5.0,5.0;" x1="569" x2="569" y1="116.5938" y2="583.4844"/><line style="stroke: #878787; stroke-width: 1.0; stroke-dasharray: 5.0,5.0;" x1="824" x2="824" y1="230.5078" y2="583.4844"/><line style="stroke: #878787; stroke-width: 1.0; stroke-dasharray: 5.0,5.0;" x1="1076.5" x2="1076.5" y1="116.5938" y2="583.4844"/><text fill="#000000" font-family="sans-serif" font-size="14" lengthAdjust="spacingAndGlyphs" textLength="90" x="8" y="113.292">SchoolAdmin</text><ellipse cx="56" cy="43.2969" fill="#FFFFFF" filter="url(#fjb8kyxtf2mk9)" rx="8" ry="8" style="stroke: #75A4FF; stroke-width: 2.0;"/><path d="M56,51.2969 L56,78.2969 M43,59.2969 L69,59.2969 M56,78.2969 L43,93.2969 M56,78.2969 L69,93.2969 " fill="none" filter="url(#fjb8kyxtf2mk9)" style="stroke: #75A4FF; stroke-width: 2.0;"/><text fill="#000000" font-family="sans-serif" font-size="14" lengthAdjust="spacingAndGlyphs" textLength="90" x="8" y="595.4795">SchoolAdmin</text><ellipse cx="56" cy="608.7813" fill="#FFFFFF" filter="url(#fjb8kyxtf2mk9)" rx="8" ry="8" style="stroke: #75A4FF; stroke-width: 2.0;"/><path d="M56,616.7813 L56,643.7813 M43,624.7813 L69,624.7813 M56,643.7813 L43,658.7813 M56,643.7813 L69,658.7813 " fill="none" filter="url(#fjb8kyxtf2mk9)" style="stroke: #75A4FF; stroke-width: 2.0;"/><rect fill="#FFFFFF" filter="url(#fjb8kyxtf2mk9)" height="30.2969" rx="5" ry="5" style="stroke: #75A4FF; stroke-width: 1.5;" width="97" x="176.5" y="81.2969"/><text fill="#000000" font-family="sans-serif" font-size="14" lengthAdjust="spacingAndGlyphs" textLength="83" x="183.5" y="101.292">UportMobile</text><rect fill="#FFFFFF" filter="url(#fjb8kyxtf2mk9)" height="30.2969" rx="5" ry="5" style="stroke: #75A4FF; stroke-width: 1.5;" width="97" x="176.5" y="582.4844"/><text fill="#000000" font-family="sans-serif" font-size="14" lengthAdjust="spacingAndGlyphs" textLength="83" x="183.5" y="602.4795">UportMobile</text><rect fill="#FFFFFF" filter="url(#fjb8kyxtf2mk9)" height="30.2969" rx="5" ry="5" style="stroke: #75A4FF; stroke-width: 1.5;" width="104" x="515" y="81.2969"/><text fill="#000000" font-family="sans-serif" font-size="14" lengthAdjust="spacingAndGlyphs" textLength="90" x="522" y="101.292">xDemicTeam</text><rect fill="#FFFFFF" filter="url(#fjb8kyxtf2mk9)" height="30.2969" rx="5" ry="5" style="stroke: #75A4FF; stroke-width: 1.5;" width="104" x="515" y="582.4844"/><text fill="#000000" font-family="sans-serif" font-size="14" lengthAdjust="spacingAndGlyphs" textLength="90" x="522" y="602.4795">xDemicTeam</text><rect fill="#FFFFFF" filter="url(#fjb8kyxtf2mk9)" height="30.2969" rx="5" ry="5" style="stroke: #75A4FF; stroke-width: 1.5;" width="80" x="782" y="582.4844"/><text fill="#000000" font-family="sans-serif" font-size="14" lengthAdjust="spacingAndGlyphs" textLength="66" x="789" y="602.4795">ClientApp</text><rect fill="#FFFFFF" filter="url(#fjb8kyxtf2mk9)" height="30.2969" rx="5" ry="5" style="stroke: #75A4FF; stroke-width: 1.5;" width="133" x="1008.5" y="81.2969"/><text fill="#000000" font-family="sans-serif" font-size="14" lengthAdjust="spacingAndGlyphs" textLength="119" x="1015.5" y="101.292">MessagingServer</text><rect fill="#FFFFFF" filter="url(#fjb8kyxtf2mk9)" height="30.2969" rx="5" ry="5" style="stroke: #75A4FF; stroke-width: 1.5;" width="133" x="1008.5" y="582.4844"/><text fill="#000000" font-family="sans-serif" font-size="14" lengthAdjust="spacingAndGlyphs" textLength="119" x="1015.5" y="602.4795">MessagingServer</text><polygon fill="#75A4FF" points="557,143.7266,567,147.7266,557,151.7266,561,147.7266" style="stroke: #75A4FF; stroke-width: 1.0;"/><line style="stroke: #75A4FF; stroke-width: 1.0; stroke-dasharray: 2.0,2.0;" x1="56" x2="563" y1="147.7266" y2="147.7266"/><text fill="#000000" font-family="sans-serif" font-size="13" lengthAdjust="spacingAndGlyphs" textLength="347" x="63" y="142.6606">Applies to gain access to platform,(Email, WeChat etc)</text><line style="stroke: #75A4FF; stroke-width: 1.0;" x1="569" x2="611" y1="176.8594" y2="176.8594"/><line style="stroke: #75A4FF; stroke-width: 1.0;" x1="611" x2="611" y1="176.8594" y2="189.8594"/><line style="stroke: #75A4FF; stroke-width: 1.0;" x1="570" x2="611" y1="189.8594" y2="189.8594"/><polygon fill="#75A4FF" points="580,185.8594,570,189.8594,580,193.8594,576,189.8594" style="stroke: #75A4FF; stroke-width: 1.0;"/><text fill="#000000" font-family="sans-serif" font-size="13" lengthAdjust="spacingAndGlyphs" textLength="209" x="576" y="171.7935">Offline verification, and Whitelists</text><polygon fill="#75A4FF" points="770,214.9922,780,218.9922,770,222.9922,774,218.9922" style="stroke: #75A4FF; stroke-width: 1.0;"/><line style="stroke: #75A4FF; stroke-width: 1.0;" x1="569" x2="776" y1="218.9922" y2="218.9922"/><text fill="#000000" font-family="sans-serif" font-size="13" lengthAdjust="spacingAndGlyphs" textLength="179" x="576" y="213.9263">Startup ClientApp for school</text><rect fill="#FFFFFF" filter="url(#fjb8kyxtf2mk9)" height="30.2969" rx="5" ry="5" style="stroke: #75A4FF; stroke-width: 1.5;" width="80" x="782" y="197.8594"/><text fill="#000000" font-family="sans-serif" font-size="14" lengthAdjust="spacingAndGlyphs" textLength="66" x="789" y="217.8545">ClientApp</text><line style="stroke: #75A4FF; stroke-width: 1.0;" x1="824" x2="866" y1="264.2891" y2="264.2891"/><line style="stroke: #75A4FF; stroke-width: 1.0;" x1="866" x2="866" y1="264.2891" y2="277.2891"/><line style="stroke: #75A4FF; stroke-width: 1.0;" x1="825" x2="866" y1="277.2891" y2="277.2891"/><polygon fill="#75A4FF" points="835,273.2891,825,277.2891,835,281.2891,831,277.2891" style="stroke: #75A4FF; stroke-width: 1.0;"/><text fill="#000000" font-family="sans-serif" font-size="13" lengthAdjust="spacingAndGlyphs" textLength="239" x="831" y="259.2231">Selective Disclosure Request Created</text><polygon fill="#75A4FF" points="67,302.4219,57,306.4219,67,310.4219,63,306.4219" style="stroke: #75A4FF; stroke-width: 1.0;"/><line style="stroke: #75A4FF; stroke-width: 1.0;" x1="61" x2="823" y1="306.4219" y2="306.4219"/><text fill="#000000" font-family="sans-serif" font-size="13" lengthAdjust="spacingAndGlyphs" textLength="341" x="73" y="301.356">Contact (email etc) Show QR code containing request</text><line style="stroke: #75A4FF; stroke-width: 1.0;" x1="56" x2="98" y1="335.5547" y2="335.5547"/><line style="stroke: #75A4FF; stroke-width: 1.0;" x1="98" x2="98" y1="335.5547" y2="348.5547"/><line style="stroke: #75A4FF; stroke-width: 1.0;" x1="57" x2="98" y1="348.5547" y2="348.5547"/><polygon fill="#75A4FF" points="67,344.5547,57,348.5547,67,352.5547,63,348.5547" style="stroke: #75A4FF; stroke-width: 1.0;"/><text fill="#000000" font-family="sans-serif" font-size="13" lengthAdjust="spacingAndGlyphs" textLength="157" x="63" y="330.4888">Downloads App from link</text><polygon fill="#75A4FF" points="215,373.6875,225,377.6875,215,381.6875,219,377.6875" style="stroke: #75A4FF; stroke-width: 1.0;"/><line style="stroke: #75A4FF; stroke-width: 1.0;" x1="56" x2="221" y1="377.6875" y2="377.6875"/><text fill="#000000" font-family="sans-serif" font-size="13" lengthAdjust="spacingAndGlyphs" textLength="96" x="63" y="372.6216">Scans QR code</text><polygon fill="#75A4FF" points="67,402.8203,57,406.8203,67,410.8203,63,406.8203" style="stroke: #75A4FF; stroke-width: 1.0;"/><line style="stroke: #75A4FF; stroke-width: 1.0;" x1="61" x2="226" y1="406.8203" y2="406.8203"/><text fill="#000000" font-family="sans-serif" font-size="13" lengthAdjust="spacingAndGlyphs" textLength="124" x="73" y="401.7544">Authorize Request?</text><polygon fill="#75A4FF" points="215,431.9531,225,435.9531,215,439.9531,219,435.9531" style="stroke: #75A4FF; stroke-width: 1.0;"/><line style="stroke: #75A4FF; stroke-width: 1.0;" x1="56" x2="221" y1="435.9531" y2="435.9531"/><text fill="#000000" font-family="sans-serif" font-size="13" lengthAdjust="spacingAndGlyphs" textLength="87" x="63" y="430.8872">Allow/Disallow</text><line style="stroke: #75A4FF; stroke-width: 1.0;" x1="227" x2="269" y1="465.0859" y2="465.0859"/><line style="stroke: #75A4FF; stroke-width: 1.0;" x1="269" x2="269" y1="465.0859" y2="478.0859"/><line style="stroke: #75A4FF; stroke-width: 1.0;" x1="228" x2="269" y1="478.0859" y2="478.0859"/><polygon fill="#75A4FF" points="238,474.0859,228,478.0859,238,482.0859,234,478.0859" style="stroke: #75A4FF; stroke-width: 1.0;"/><text fill="#000000" font-family="sans-serif" font-size="13" lengthAdjust="spacingAndGlyphs" textLength="328" x="234" y="460.02">Sign Selective Disclosure Response with PushToken</text><polygon fill="#75A4FF" points="1065,503.2188,1075,507.2188,1065,511.2188,1069,507.2188" style="stroke: #75A4FF; stroke-width: 1.0;"/><line style="stroke: #75A4FF; stroke-width: 1.0;" x1="227" x2="1071" y1="507.2188" y2="507.2188"/><text fill="#000000" font-family="sans-serif" font-size="13" lengthAdjust="spacingAndGlyphs" textLength="194" x="234" y="502.1528">Selective Disclosure Response</text><polygon fill="#75A4FF" points="835,532.3516,825,536.3516,835,540.3516,831,536.3516" style="stroke: #75A4FF; stroke-width: 1.0;"/><line style="stroke: #75A4FF; stroke-width: 1.0;" x1="829" x2="1076" y1="536.3516" y2="536.3516"/><text fill="#000000" font-family="sans-serif" font-size="13" lengthAdjust="spacingAndGlyphs" textLength="194" x="841" y="531.2856">Selective Disclosure Response</text><polygon fill="#75A4FF" points="67,561.4844,57,565.4844,67,569.4844,63,565.4844" style="stroke: #75A4FF; stroke-width: 1.0;"/><line style="stroke: #75A4FF; stroke-width: 1.0; stroke-dasharray: 2.0,2.0;" x1="61" x2="823" y1="565.4844" y2="565.4844"/><text fill="#000000" font-family="sans-serif" font-size="13" lengthAdjust="spacingAndGlyphs" textLength="288" x="73" y="560.4185">Login SchoolAdmin and Begin Startup Wizard</text><!--
@startuml
skinparam roundcorner 10
skinparam BoxPadding 10
skinparam headerFontColor #75A4FF
skinparam headerFontSize 18
skinparam sequence {
  ArrowColor #75A4FF
  GroupBackgroundColor #75A4FF
  GroupBorderColor #EDECFF
  GroupHeaderFontColor #ffffff
  BoxBorderColor #75A4FF
  BoxBackgroundColor #EDECFF
  BoxPadding 10

  ParticipantBorderColor #75A4FF
  ParticipantBackgroundColor #ffffff
  ParticipantPadding 10

  ActorBorderColor #75A4FF
  ActorBackgroundColor #ffffff
  EntityBorderColor #75A4FF
  EntityBackgroundColor #ffffff
  DatabaseBorderColor #75A4FF
  DatabaseBackgroundColor #ffffff

  LifeLineBorderColor #878787
}
title School Service Startup participant xDemicTeam
actor SchoolAdmin
participant UportMobile


SchoolAdmin - -> xDemicTeam: Applies to gain access to platform,(Email, WeChat etc)
xDemicTeam -> xDemicTeam: Offline verification, and Whitelists

create ClientApp 

xDemicTeam -> ClientApp: Startup ClientApp for school
ClientApp -> ClientApp : Selective Disclosure Request Created 

ClientApp -> SchoolAdmin : Contact (email etc) Show QR code containing request
SchoolAdmin -> SchoolAdmin: Downloads App from link

SchoolAdmin -> UportMobile: Scans QR code
UportMobile -> SchoolAdmin : Authorize Request?
SchoolAdmin -> UportMobile: Allow/Disallow
UportMobile -> UportMobile: Sign Selective Disclosure Response with PushToken
UportMobile -> MessagingServer: Selective Disclosure Response
MessagingServer -> ClientApp: Selective Disclosure Response
ClientApp - -> SchoolAdmin: Login SchoolAdmin and Begin Startup Wizard
@enduml

PlantUML version 1.2018.13(Mon Nov 26 12:11:51 EST 2018)
(GPL source distribution)
Java Runtime: OpenJDK Runtime Environment
JVM: OpenJDK 64-Bit Server VM
Java Version: 11.0.4+11-post-Ubuntu-1ubuntu219.04
Operating System: Linux
OS Version: 5.0.0-24-generic
Default Encoding: UTF-8
Language: en
Country: US
--></g></svg>