<?xml version="1.0" encoding="UTF-8" standalone="no"?><svg xmlns="http://www.w3.org/2000/svg" xmlns:xlink="http://www.w3.org/1999/xlink" contentScriptType="application/ecmascript" contentStyleType="text/css" height="789px" preserveAspectRatio="none" style="width:1563px;height:789px;" version="1.1" viewBox="0 0 1563 789" width="1563px" zoomAndPan="magnify"><defs><filter height="300%" id="ff7d6phqdue8j" width="300%" x="-1" y="-1"><feGaussianBlur result="blurOut" stdDeviation="2.0"/><feColorMatrix in="blurOut" result="blurOut2" type="matrix" values="0 0 0 0 0 0 0 0 0 0 0 0 0 0 0 0 0 0 .4 0"/><feOffset dx="4.0" dy="4.0" in="blurOut2" result="blurOut3"/><feBlend in="SourceGraphic" in2="blurOut3" mode="normal"/></filter></defs><g><rect fill="#FFFFFF" filter="url(#ff7d6phqdue8j)" height="30.2969" rx="5" ry="5" style="stroke: #75A4FF; stroke-width: 1.5;" width="71" x="1481.5" y="196.6953"/><text fill="#000000" font-family="sans-serif" font-size="14" lengthAdjust="spacingAndGlyphs" textLength="57" x="1488.5" y="216.6904">Teacher</text><line style="stroke: #878787; stroke-width: 1.0; stroke-dasharray: 5.0,5.0;" x1="56" x2="56" y1="86.2969" y2="701.9844"/><line style="stroke: #878787; stroke-width: 1.0; stroke-dasharray: 5.0,5.0;" x1="369" x2="369" y1="86.2969" y2="701.9844"/><line style="stroke: #878787; stroke-width: 1.0; stroke-dasharray: 5.0,5.0;" x1="734.5" x2="734.5" y1="86.2969" y2="701.9844"/><line style="stroke: #878787; stroke-width: 1.0; stroke-dasharray: 5.0,5.0;" x1="888.5" x2="888.5" y1="86.2969" y2="701.9844"/><line style="stroke: #878787; stroke-width: 1.0; stroke-dasharray: 5.0,5.0;" x1="1398.5" x2="1398.5" y1="86.2969" y2="701.9844"/><line style="stroke: #878787; stroke-width: 1.0; stroke-dasharray: 5.0,5.0;" x1="1518.5" x2="1518.5" y1="229.3438" y2="701.9844"/><text fill="#000000" font-family="sans-serif" font-size="14" lengthAdjust="spacingAndGlyphs" textLength="90" x="8" y="82.9951">SchoolAdmin</text><ellipse cx="56" cy="13" fill="#FFFFFF" filter="url(#ff7d6phqdue8j)" rx="8" ry="8" style="stroke: #75A4FF; stroke-width: 2.0;"/><path d="M56,21 L56,48 M43,29 L69,29 M56,48 L43,63 M56,48 L69,63 " fill="none" filter="url(#ff7d6phqdue8j)" style="stroke: #75A4FF; stroke-width: 2.0;"/><text fill="#000000" font-family="sans-serif" font-size="14" lengthAdjust="spacingAndGlyphs" textLength="90" x="8" y="713.9795">SchoolAdmin</text><ellipse cx="56" cy="727.2813" fill="#FFFFFF" filter="url(#ff7d6phqdue8j)" rx="8" ry="8" style="stroke: #75A4FF; stroke-width: 2.0;"/><path d="M56,735.2813 L56,762.2813 M43,743.2813 L69,743.2813 M56,762.2813 L43,777.2813 M56,762.2813 L69,777.2813 " fill="none" filter="url(#ff7d6phqdue8j)" style="stroke: #75A4FF; stroke-width: 2.0;"/><rect fill="#FFFFFF" filter="url(#ff7d6phqdue8j)" height="30.2969" rx="5" ry="5" style="stroke: #75A4FF; stroke-width: 1.5;" width="80" x="327" y="51"/><text fill="#000000" font-family="sans-serif" font-size="14" lengthAdjust="spacingAndGlyphs" textLength="66" x="334" y="70.9951">ClientApp</text><rect fill="#FFFFFF" filter="url(#ff7d6phqdue8j)" height="30.2969" rx="5" ry="5" style="stroke: #75A4FF; stroke-width: 1.5;" width="80" x="327" y="700.9844"/><text fill="#000000" font-family="sans-serif" font-size="14" lengthAdjust="spacingAndGlyphs" textLength="66" x="334" y="720.9795">ClientApp</text><text fill="#000000" font-family="sans-serif" font-size="14" lengthAdjust="spacingAndGlyphs" textLength="113" x="675.5" y="82.9951">SchoolDatabase</text><path d="M717,34 C717,24 735,24 735,24 C735,24 753,24 753,34 L753,60 C753,70 735,70 735,70 C735,70 717,70 717,60 L717,34 " fill="#FEFECE" filter="url(#ff7d6phqdue8j)" style="stroke: #000000; stroke-width: 1.5;"/><path d="M717,34 C717,44 735,44 735,44 C735,44 753,44 753,34 " fill="none" style="stroke: #000000; stroke-width: 1.5;"/><text fill="#000000" font-family="sans-serif" font-size="14" lengthAdjust="spacingAndGlyphs" textLength="113" x="675.5" y="713.9795">SchoolDatabase</text><path d="M717,727.2813 C717,717.2813 735,717.2813 735,717.2813 C735,717.2813 753,717.2813 753,727.2813 L753,753.2813 C753,763.2813 735,763.2813 735,763.2813 C735,763.2813 717,763.2813 717,753.2813 L717,727.2813 " fill="#FEFECE" filter="url(#ff7d6phqdue8j)" style="stroke: #000000; stroke-width: 1.5;"/><path d="M717,727.2813 C717,737.2813 735,737.2813 735,737.2813 C735,737.2813 753,737.2813 753,727.2813 " fill="none" style="stroke: #000000; stroke-width: 1.5;"/><rect fill="#FFFFFF" filter="url(#ff7d6phqdue8j)" height="30.2969" rx="5" ry="5" style="stroke: #75A4FF; stroke-width: 1.5;" width="145" x="814.5" y="51"/><text fill="#000000" font-family="sans-serif" font-size="14" lengthAdjust="spacingAndGlyphs" textLength="131" x="821.5" y="70.9951">BadgeMicroservice</text><rect fill="#FFFFFF" filter="url(#ff7d6phqdue8j)" height="30.2969" rx="5" ry="5" style="stroke: #75A4FF; stroke-width: 1.5;" width="145" x="814.5" y="700.9844"/><text fill="#000000" font-family="sans-serif" font-size="14" lengthAdjust="spacingAndGlyphs" textLength="131" x="821.5" y="720.9795">BadgeMicroservice</text><rect fill="#FFFFFF" filter="url(#ff7d6phqdue8j)" height="30.2969" rx="5" ry="5" style="stroke: #75A4FF; stroke-width: 1.5;" width="101" x="1346.5" y="51"/><text fill="#000000" font-family="sans-serif" font-size="14" lengthAdjust="spacingAndGlyphs" textLength="87" x="1353.5" y="70.9951">WebOrWeb3</text><rect fill="#FFFFFF" filter="url(#ff7d6phqdue8j)" height="30.2969" rx="5" ry="5" style="stroke: #75A4FF; stroke-width: 1.5;" width="101" x="1346.5" y="700.9844"/><text fill="#000000" font-family="sans-serif" font-size="14" lengthAdjust="spacingAndGlyphs" textLength="87" x="1353.5" y="720.9795">WebOrWeb3</text><rect fill="#FFFFFF" filter="url(#ff7d6phqdue8j)" height="30.2969" rx="5" ry="5" style="stroke: #75A4FF; stroke-width: 1.5;" width="71" x="1481.5" y="700.9844"/><text fill="#000000" font-family="sans-serif" font-size="14" lengthAdjust="spacingAndGlyphs" textLength="57" x="1488.5" y="720.9795">Teacher</text><polygon fill="#75A4FF" points="357,113.4297,367,117.4297,357,121.4297,361,117.4297" style="stroke: #75A4FF; stroke-width: 1.0;"/><line style="stroke: #75A4FF; stroke-width: 1.0;" x1="56" x2="363" y1="117.4297" y2="117.4297"/><text fill="#000000" font-family="sans-serif" font-size="13" lengthAdjust="spacingAndGlyphs" textLength="184" x="63" y="112.3638">Creates new course instance</text><line style="stroke: #75A4FF; stroke-width: 1.0;" x1="56" x2="98" y1="146.5625" y2="146.5625"/><line style="stroke: #75A4FF; stroke-width: 1.0;" x1="98" x2="98" y1="146.5625" y2="159.5625"/><line style="stroke: #75A4FF; stroke-width: 1.0;" x1="57" x2="98" y1="159.5625" y2="159.5625"/><polygon fill="#75A4FF" points="67,155.5625,57,159.5625,67,163.5625,63,159.5625" style="stroke: #75A4FF; stroke-width: 1.0;"/><text fill="#000000" font-family="sans-serif" font-size="13" lengthAdjust="spacingAndGlyphs" textLength="167" x="63" y="141.4966">Enter relevant information</text><polygon fill="#75A4FF" points="357,184.6953,367,188.6953,357,192.6953,361,188.6953" style="stroke: #75A4FF; stroke-width: 1.0;"/><line style="stroke: #75A4FF; stroke-width: 1.0; stroke-dasharray: 2.0,2.0;" x1="56" x2="363" y1="188.6953" y2="188.6953"/><text fill="#000000" font-family="sans-serif" font-size="13" lengthAdjust="spacingAndGlyphs" textLength="80" x="63" y="183.6294">Add Teacher</text><polygon fill="#75A4FF" points="1469.5,213.8281,1479.5,217.8281,1469.5,221.8281,1473.5,217.8281" style="stroke: #75A4FF; stroke-width: 1.0;"/><line style="stroke: #75A4FF; stroke-width: 1.0; stroke-dasharray: 2.0,2.0;" x1="369" x2="1475.5" y1="217.8281" y2="217.8281"/><text fill="#000000" font-family="sans-serif" font-size="13" lengthAdjust="spacingAndGlyphs" textLength="258" x="376" y="212.7622">Assign Course Instance to Teacher (DID)</text><rect fill="#FFFFFF" filter="url(#ff7d6phqdue8j)" height="30.2969" rx="5" ry="5" style="stroke: #75A4FF; stroke-width: 1.5;" width="71" x="1481.5" y="196.6953"/><text fill="#000000" font-family="sans-serif" font-size="14" lengthAdjust="spacingAndGlyphs" textLength="57" x="1488.5" y="216.6904">Teacher</text><polygon fill="#75A4FF" points="723,259.125,733,263.125,723,267.125,727,263.125" style="stroke: #75A4FF; stroke-width: 1.0;"/><line style="stroke: #75A4FF; stroke-width: 1.0; stroke-dasharray: 2.0,2.0;" x1="369" x2="729" y1="263.125" y2="263.125"/><text fill="#000000" font-family="sans-serif" font-size="13" lengthAdjust="spacingAndGlyphs" textLength="342" x="376" y="258.0591">Associate Teacher DID with CourseInstance (Publish?)</text><polygon fill="#75A4FF" points="877,288.2578,887,292.2578,877,296.2578,881,292.2578" style="stroke: #75A4FF; stroke-width: 1.0;"/><line style="stroke: #75A4FF; stroke-width: 1.0;" x1="369" x2="883" y1="292.2578" y2="292.2578"/><text fill="#000000" font-family="sans-serif" font-size="13" lengthAdjust="spacingAndGlyphs" textLength="188" x="376" y="287.1919">Create Course Instance Class</text><polygon fill="#75A4FF" points="1387,317.3906,1397,321.3906,1387,325.3906,1391,321.3906" style="stroke: #75A4FF; stroke-width: 1.0;"/><line style="stroke: #75A4FF; stroke-width: 1.0;" x1="889" x2="1393" y1="321.3906" y2="321.3906"/><text fill="#000000" font-family="sans-serif" font-size="13" lengthAdjust="spacingAndGlyphs" textLength="244" x="896" y="316.3247">Pulls relevant course BadgeClass data</text><polygon fill="#75A4FF" points="900,346.5234,890,350.5234,900,354.5234,896,350.5234" style="stroke: #75A4FF; stroke-width: 1.0;"/><line style="stroke: #75A4FF; stroke-width: 1.0;" x1="894" x2="1398" y1="350.5234" y2="350.5234"/><text fill="#000000" font-family="sans-serif" font-size="13" lengthAdjust="spacingAndGlyphs" textLength="149" x="906" y="345.4575">Returns BadgeClass LD</text><line style="stroke: #75A4FF; stroke-width: 1.0;" x1="889" x2="931" y1="379.6563" y2="379.6563"/><line style="stroke: #75A4FF; stroke-width: 1.0;" x1="931" x2="931" y1="379.6563" y2="392.6563"/><line style="stroke: #75A4FF; stroke-width: 1.0;" x1="890" x2="931" y1="392.6563" y2="392.6563"/><polygon fill="#75A4FF" points="900,388.6563,890,392.6563,900,396.6563,896,392.6563" style="stroke: #75A4FF; stroke-width: 1.0;"/><text fill="#000000" font-family="sans-serif" font-size="13" lengthAdjust="spacingAndGlyphs" textLength="496" x="896" y="374.5903">Parses BadgeClass LD, Populates Course Instance Class with BadgeClass URL</text><polygon fill="#75A4FF" points="380,417.7891,370,421.7891,380,425.7891,376,421.7891" style="stroke: #75A4FF; stroke-width: 1.0;"/><line style="stroke: #75A4FF; stroke-width: 1.0;" x1="374" x2="888" y1="421.7891" y2="421.7891"/><text fill="#000000" font-family="sans-serif" font-size="13" lengthAdjust="spacingAndGlyphs" textLength="222" x="386" y="416.7231">CourseInstanct sucessfully created</text><polygon fill="#75A4FF" points="67,446.9219,57,450.9219,67,454.9219,63,450.9219" style="stroke: #75A4FF; stroke-width: 1.0;"/><line style="stroke: #75A4FF; stroke-width: 1.0;" x1="61" x2="368" y1="450.9219" y2="450.9219"/><text fill="#000000" font-family="sans-serif" font-size="13" lengthAdjust="spacingAndGlyphs" textLength="289" x="73" y="445.856">Publish course?/Save Course for Later/Cancel</text><polygon fill="#75A4FF" points="357,476.0547,367,480.0547,357,484.0547,361,480.0547" style="stroke: #75A4FF; stroke-width: 1.0;"/><line style="stroke: #75A4FF; stroke-width: 1.0; stroke-dasharray: 2.0,2.0;" x1="56" x2="363" y1="480.0547" y2="480.0547"/><text fill="#000000" font-family="sans-serif" font-size="13" lengthAdjust="spacingAndGlyphs" textLength="22" x="63" y="474.9888">Yes</text><polygon fill="#75A4FF" points="877,505.1875,887,509.1875,877,513.1875,881,509.1875" style="stroke: #75A4FF; stroke-width: 1.0;"/><line style="stroke: #75A4FF; stroke-width: 1.0;" x1="369" x2="883" y1="509.1875" y2="509.1875"/><text fill="#000000" font-family="sans-serif" font-size="13" lengthAdjust="spacingAndGlyphs" textLength="148" x="376" y="504.1216">Publish CourseInstance</text><polygon fill="#75A4FF" points="1387,534.3203,1397,538.3203,1387,542.3203,1391,538.3203" style="stroke: #75A4FF; stroke-width: 1.0;"/><line style="stroke: #75A4FF; stroke-width: 1.0;" x1="889" x2="1393" y1="538.3203" y2="538.3203"/><text fill="#000000" font-family="sans-serif" font-size="13" lengthAdjust="spacingAndGlyphs" textLength="148" x="896" y="533.2544">Publish CourseInstance</text><polygon fill="#75A4FF" points="900,563.4531,890,567.4531,900,571.4531,896,567.4531" style="stroke: #75A4FF; stroke-width: 1.0;"/><line style="stroke: #75A4FF; stroke-width: 1.0;" x1="894" x2="1398" y1="567.4531" y2="567.4531"/><text fill="#000000" font-family="sans-serif" font-size="13" lengthAdjust="spacingAndGlyphs" textLength="136" x="906" y="562.3872">Return Published URL</text><polygon fill="#75A4FF" points="746,592.5859,736,596.5859,746,600.5859,742,596.5859" style="stroke: #75A4FF; stroke-width: 1.0;"/><line style="stroke: #75A4FF; stroke-width: 1.0;" x1="740" x2="888" y1="596.5859" y2="596.5859"/><text fill="#000000" font-family="sans-serif" font-size="13" lengthAdjust="spacingAndGlyphs" textLength="61" x="752" y="591.52">Save URL</text><polygon fill="#75A4FF" points="67,621.7188,57,625.7188,67,629.7188,63,625.7188" style="stroke: #75A4FF; stroke-width: 1.0;"/><line style="stroke: #75A4FF; stroke-width: 1.0;" x1="61" x2="368" y1="625.7188" y2="625.7188"/><text fill="#000000" font-family="sans-serif" font-size="13" lengthAdjust="spacingAndGlyphs" textLength="92" x="73" y="620.6528">Add students?</text><polygon fill="#75A4FF" points="357,650.8516,367,654.8516,357,658.8516,361,654.8516" style="stroke: #75A4FF; stroke-width: 1.0;"/><line style="stroke: #75A4FF; stroke-width: 1.0; stroke-dasharray: 2.0,2.0;" x1="56" x2="363" y1="654.8516" y2="654.8516"/><text fill="#000000" font-family="sans-serif" font-size="13" lengthAdjust="spacingAndGlyphs" textLength="208" x="63" y="649.7856">Add Students (CSV or Individual)</text><polygon fill="#75A4FF" points="723,679.9844,733,683.9844,723,687.9844,727,683.9844" style="stroke: #75A4FF; stroke-width: 1.0;"/><line style="stroke: #75A4FF; stroke-width: 1.0; stroke-dasharray: 2.0,2.0;" x1="369" x2="729" y1="683.9844" y2="683.9844"/><text fill="#000000" font-family="sans-serif" font-size="13" lengthAdjust="spacingAndGlyphs" textLength="303" x="376" y="678.9185">Associate student DID with CourseInstance URL</text><!--
@startuml
skinparam roundcorner 10
skinparam BoxPadding 10
skinparam headerFontColor #75A4FF
skinparam headerFontSize 18
skinparam sequence {
  ArrowColor #75A4FF
  GroupBackgroundColor #75A4FF
  GroupBorderColor #EDECFF
  GroupHeaderFontColor #ffffff
  BoxBorderColor #75A4FF
  BoxBackgroundColor #EDECFF
  BoxPadding 10

  ParticipantBorderColor #75A4FF
  ParticipantBackgroundColor #ffffff
  ParticipantPadding 10

  ActorBorderColor #75A4FF
  ActorBackgroundColor #ffffff
  EntityBorderColor #75A4FF
  EntityBackgroundColor #ffffff
  DatabaseBorderColor #75A4FF
  DatabaseBackgroundColor #ffffff

  LifeLineBorderColor #878787
}

actor SchoolAdmin
participant ClientApp
database SchoolDatabase
participant BadgeMicroservice
participant WebOrWeb3

SchoolAdmin -> ClientApp: Creates new course instance

SchoolAdmin -> SchoolAdmin : Enter relevant information
SchoolAdmin - -> ClientApp : Add Teacher
create Teacher
ClientApp - -> Teacher : Assign Course Instance to Teacher (DID)
ClientApp - -> SchoolDatabase: Associate Teacher DID with CourseInstance (Publish?)
ClientApp -> BadgeMicroservice: Create Course Instance Class

BadgeMicroservice ->WebOrWeb3 : Pulls relevant course BadgeClass data
WebOrWeb3 -> BadgeMicroservice: Returns BadgeClass LD
BadgeMicroservice -> BadgeMicroservice: Parses BadgeClass LD, Populates Course Instance Class with BadgeClass URL
BadgeMicroservice -> ClientApp : CourseInstanct sucessfully created
ClientApp -> SchoolAdmin: Publish course?/Save Course for Later/Cancel
SchoolAdmin - -> ClientApp: Yes
ClientApp -> BadgeMicroservice: Publish CourseInstance
BadgeMicroservice -> WebOrWeb3 : Publish CourseInstance
WebOrWeb3 -> BadgeMicroservice: Return Published URL
BadgeMicroservice -> SchoolDatabase : Save URL
ClientApp -> SchoolAdmin: Add students?

SchoolAdmin - -> ClientApp: Add Students (CSV or Individual)
ClientApp - -> SchoolDatabase: Associate student DID with CourseInstance URL 

@enduml

PlantUML version 1.2018.13(Mon Nov 26 12:11:51 EST 2018)
(GPL source distribution)
Java Runtime: OpenJDK Runtime Environment
JVM: OpenJDK 64-Bit Server VM
Java Version: 11.0.4+11-post-Ubuntu-1ubuntu219.04
Operating System: Linux
OS Version: 5.0.0-24-generic
Default Encoding: UTF-8
Language: en
Country: US
--></g></svg>