<?xml version="1.0" encoding="UTF-8" standalone="no"?><svg xmlns="http://www.w3.org/2000/svg" xmlns:xlink="http://www.w3.org/1999/xlink" contentScriptType="application/ecmascript" contentStyleType="text/css" height="651px" preserveAspectRatio="none" style="width:1253px;height:651px;" version="1.1" viewBox="0 0 1253 651" width="1253px" zoomAndPan="magnify"><defs><filter height="300%" id="fmbd5yjfewl1j" width="300%" x="-1" y="-1"><feGaussianBlur result="blurOut" stdDeviation="2.0"/><feColorMatrix in="blurOut" result="blurOut2" type="matrix" values="0 0 0 0 0 0 0 0 0 0 0 0 0 0 0 0 0 0 .4 0"/><feOffset dx="4.0" dy="4.0" in="blurOut2" result="blurOut3"/><feBlend in="SourceGraphic" in2="blurOut3" mode="normal"/></filter></defs><g><rect fill="#FFFFFF" filter="url(#fmbd5yjfewl1j)" height="148.4688" rx="5" ry="5" style="stroke: #EDECFF; stroke-width: 2.0;" width="435" x="13" y="132.4297"/><rect fill="#FFFFFF" height="73.0703" style="stroke: none; stroke-width: 1.0;" width="435" x="13" y="207.8281"/><rect fill="#FFFFFF" filter="url(#fmbd5yjfewl1j)" height="164.6328" rx="5" ry="5" style="stroke: #EDECFF; stroke-width: 2.0;" width="544.5" x="696.5" y="382.2969"/><rect fill="#FFFFFF" filter="url(#fmbd5yjfewl1j)" height="30.2969" rx="5" ry="5" style="stroke: #75A4FF; stroke-width: 1.5;" width="152" x="1065" y="457.6953"/><text fill="#000000" font-family="sans-serif" font-size="14" lengthAdjust="spacingAndGlyphs" textLength="138" x="1072" y="477.6904">UportMobileStudent</text><rect fill="#FFFFFF" height="43.9375" style="stroke: none; stroke-width: 1.0;" width="544.5" x="696.5" y="502.9922"/><line style="stroke: #878787; stroke-width: 1.0; stroke-dasharray: 5.0,5.0;" x1="71" x2="71" y1="86.2969" y2="563.9297"/><line style="stroke: #878787; stroke-width: 1.0; stroke-dasharray: 5.0,5.0;" x1="194.5" x2="194.5" y1="86.2969" y2="563.9297"/><line style="stroke: #878787; stroke-width: 1.0; stroke-dasharray: 5.0,5.0;" x1="386" x2="386" y1="86.2969" y2="563.9297"/><line style="stroke: #878787; stroke-width: 1.0; stroke-dasharray: 5.0,5.0;" x1="636.5" x2="636.5" y1="86.2969" y2="563.9297"/><line style="stroke: #878787; stroke-width: 1.0; stroke-dasharray: 5.0,5.0;" x1="790.5" x2="790.5" y1="86.2969" y2="563.9297"/><line style="stroke: #878787; stroke-width: 1.0; stroke-dasharray: 5.0,5.0;" x1="971.5" x2="971.5" y1="86.2969" y2="563.9297"/><line style="stroke: #878787; stroke-width: 1.0; stroke-dasharray: 5.0,5.0;" x1="1143" x2="1143" y1="490.3438" y2="563.9297"/><text fill="#000000" font-family="sans-serif" font-size="14" lengthAdjust="spacingAndGlyphs" textLength="90" x="23" y="82.9951">SchoolAdmin</text><ellipse cx="71" cy="13" fill="#FFFFFF" filter="url(#fmbd5yjfewl1j)" rx="8" ry="8" style="stroke: #75A4FF; stroke-width: 2.0;"/><path d="M71,21 L71,48 M58,29 L84,29 M71,48 L58,63 M71,48 L84,63 " fill="none" filter="url(#fmbd5yjfewl1j)" style="stroke: #75A4FF; stroke-width: 2.0;"/><text fill="#000000" font-family="sans-serif" font-size="14" lengthAdjust="spacingAndGlyphs" textLength="90" x="23" y="575.9248">SchoolAdmin</text><ellipse cx="71" cy="589.2266" fill="#FFFFFF" filter="url(#fmbd5yjfewl1j)" rx="8" ry="8" style="stroke: #75A4FF; stroke-width: 2.0;"/><path d="M71,597.2266 L71,624.2266 M58,605.2266 L84,605.2266 M71,624.2266 L58,639.2266 M71,624.2266 L84,639.2266 " fill="none" filter="url(#fmbd5yjfewl1j)" style="stroke: #75A4FF; stroke-width: 2.0;"/><rect fill="#FFFFFF" filter="url(#fmbd5yjfewl1j)" height="30.2969" rx="5" ry="5" style="stroke: #75A4FF; stroke-width: 1.5;" width="35" x="175.5" y="51"/><text fill="#000000" font-family="sans-serif" font-size="14" lengthAdjust="spacingAndGlyphs" textLength="21" x="182.5" y="70.9951">SIS</text><rect fill="#FFFFFF" filter="url(#fmbd5yjfewl1j)" height="30.2969" rx="5" ry="5" style="stroke: #75A4FF; stroke-width: 1.5;" width="35" x="175.5" y="562.9297"/><text fill="#000000" font-family="sans-serif" font-size="14" lengthAdjust="spacingAndGlyphs" textLength="21" x="182.5" y="582.9248">SIS</text><rect fill="#FFFFFF" filter="url(#fmbd5yjfewl1j)" height="30.2969" rx="5" ry="5" style="stroke: #75A4FF; stroke-width: 1.5;" width="80" x="344" y="51"/><text fill="#000000" font-family="sans-serif" font-size="14" lengthAdjust="spacingAndGlyphs" textLength="66" x="351" y="70.9951">ClientApp</text><rect fill="#FFFFFF" filter="url(#fmbd5yjfewl1j)" height="30.2969" rx="5" ry="5" style="stroke: #75A4FF; stroke-width: 1.5;" width="80" x="344" y="562.9297"/><text fill="#000000" font-family="sans-serif" font-size="14" lengthAdjust="spacingAndGlyphs" textLength="66" x="351" y="582.9248">ClientApp</text><text fill="#000000" font-family="sans-serif" font-size="14" lengthAdjust="spacingAndGlyphs" textLength="113" x="577.5" y="82.9951">SchoolDatabase</text><path d="M619,34 C619,24 637,24 637,24 C637,24 655,24 655,34 L655,60 C655,70 637,70 637,70 C637,70 619,70 619,60 L619,34 " fill="#FEFECE" filter="url(#fmbd5yjfewl1j)" style="stroke: #000000; stroke-width: 1.5;"/><path d="M619,34 C619,44 637,44 637,44 C637,44 655,44 655,34 " fill="none" style="stroke: #000000; stroke-width: 1.5;"/><text fill="#000000" font-family="sans-serif" font-size="14" lengthAdjust="spacingAndGlyphs" textLength="113" x="577.5" y="575.9248">SchoolDatabase</text><path d="M619,589.2266 C619,579.2266 637,579.2266 637,579.2266 C637,579.2266 655,579.2266 655,589.2266 L655,615.2266 C655,625.2266 637,625.2266 637,625.2266 C637,625.2266 619,625.2266 619,615.2266 L619,589.2266 " fill="#FEFECE" filter="url(#fmbd5yjfewl1j)" style="stroke: #000000; stroke-width: 1.5;"/><path d="M619,589.2266 C619,599.2266 637,599.2266 637,599.2266 C637,599.2266 655,599.2266 655,589.2266 " fill="none" style="stroke: #000000; stroke-width: 1.5;"/><rect fill="#FFFFFF" filter="url(#fmbd5yjfewl1j)" height="30.2969" rx="5" ry="5" style="stroke: #75A4FF; stroke-width: 1.5;" width="145" x="716.5" y="51"/><text fill="#000000" font-family="sans-serif" font-size="14" lengthAdjust="spacingAndGlyphs" textLength="131" x="723.5" y="70.9951">BadgeMicroservice</text><rect fill="#FFFFFF" filter="url(#fmbd5yjfewl1j)" height="30.2969" rx="5" ry="5" style="stroke: #75A4FF; stroke-width: 1.5;" width="145" x="716.5" y="562.9297"/><text fill="#000000" font-family="sans-serif" font-size="14" lengthAdjust="spacingAndGlyphs" textLength="131" x="723.5" y="582.9248">BadgeMicroservice</text><rect fill="#FFFFFF" filter="url(#fmbd5yjfewl1j)" height="30.2969" rx="5" ry="5" style="stroke: #75A4FF; stroke-width: 1.5;" width="101" x="919.5" y="51"/><text fill="#000000" font-family="sans-serif" font-size="14" lengthAdjust="spacingAndGlyphs" textLength="87" x="926.5" y="70.9951">WebOrWeb3</text><rect fill="#FFFFFF" filter="url(#fmbd5yjfewl1j)" height="30.2969" rx="5" ry="5" style="stroke: #75A4FF; stroke-width: 1.5;" width="101" x="919.5" y="562.9297"/><text fill="#000000" font-family="sans-serif" font-size="14" lengthAdjust="spacingAndGlyphs" textLength="87" x="926.5" y="582.9248">WebOrWeb3</text><rect fill="#FFFFFF" filter="url(#fmbd5yjfewl1j)" height="30.2969" rx="5" ry="5" style="stroke: #75A4FF; stroke-width: 1.5;" width="152" x="1065" y="562.9297"/><text fill="#000000" font-family="sans-serif" font-size="14" lengthAdjust="spacingAndGlyphs" textLength="138" x="1072" y="582.9248">UportMobileStudent</text><polygon fill="#75A4FF" points="374,113.4297,384,117.4297,374,121.4297,378,117.4297" style="stroke: #75A4FF; stroke-width: 1.0;"/><line style="stroke: #75A4FF; stroke-width: 1.0;" x1="71" x2="380" y1="117.4297" y2="117.4297"/><text fill="#000000" font-family="sans-serif" font-size="13" lengthAdjust="spacingAndGlyphs" textLength="159" x="78" y="112.3638">Import Records From SIS</text><path d="M18,132.4297 L77,132.4297 L77,139.4297 L67,149.4297 L13,149.4297 L13,137.4297 " fill="#75A4FF" style="stroke: #EDECFF; stroke-width: 1.0;"/><rect fill="none" height="148.4688" rx="5" ry="5" style="stroke: #EDECFF; stroke-width: 2.0;" width="435" x="13" y="132.4297"/><text fill="#FFFFFF" font-family="sans-serif" font-size="13" font-weight="bold" lengthAdjust="spacingAndGlyphs" textLength="19" x="28" y="145.4966">alt</text><text fill="#000000" font-family="sans-serif" font-size="11" font-weight="bold" lengthAdjust="spacingAndGlyphs" textLength="75" x="92" y="144.6401">[API Import]</text><polygon fill="#75A4FF" points="206,166.6953,196,170.6953,206,174.6953,202,170.6953" style="stroke: #75A4FF; stroke-width: 1.0;"/><line style="stroke: #75A4FF; stroke-width: 1.0;" x1="200" x2="385" y1="170.6953" y2="170.6953"/><text fill="#000000" font-family="sans-serif" font-size="13" lengthAdjust="spacingAndGlyphs" textLength="153" x="212" y="165.6294">Pull Student Credentials</text><polygon fill="#75A4FF" points="374,195.8281,384,199.8281,374,203.8281,378,199.8281" style="stroke: #75A4FF; stroke-width: 1.0;"/><line style="stroke: #75A4FF; stroke-width: 1.0;" x1="195" x2="380" y1="199.8281" y2="199.8281"/><text fill="#000000" font-family="sans-serif" font-size="13" lengthAdjust="spacingAndGlyphs" textLength="167" x="202" y="194.7622">Specific Credentials Pulled</text><line style="stroke: #EDECFF; stroke-width: 1.0; stroke-dasharray: 2.0,2.0;" x1="13" x2="448" y1="208.8281" y2="208.8281"/><text fill="#000000" font-family="sans-serif" font-size="11" font-weight="bold" lengthAdjust="spacingAndGlyphs" textLength="80" x="18" y="219.0386">[CSV Import]</text><polygon fill="#75A4FF" points="183,239.7656,193,243.7656,183,247.7656,187,243.7656" style="stroke: #75A4FF; stroke-width: 1.0;"/><line style="stroke: #75A4FF; stroke-width: 1.0;" x1="71" x2="189" y1="243.7656" y2="243.7656"/><text fill="#000000" font-family="sans-serif" font-size="13" lengthAdjust="spacingAndGlyphs" textLength="100" x="78" y="238.6997">Downloads CSV</text><polygon fill="#75A4FF" points="374,268.8984,384,272.8984,374,276.8984,378,272.8984" style="stroke: #75A4FF; stroke-width: 1.0;"/><line style="stroke: #75A4FF; stroke-width: 1.0;" x1="71" x2="380" y1="272.8984" y2="272.8984"/><text fill="#000000" font-family="sans-serif" font-size="13" lengthAdjust="spacingAndGlyphs" textLength="83" x="78" y="267.8325">Uploads CSV</text><polygon fill="#75A4FF" points="625,305.0313,635,309.0313,625,313.0313,629,309.0313" style="stroke: #75A4FF; stroke-width: 1.0;"/><line style="stroke: #75A4FF; stroke-width: 1.0;" x1="386" x2="631" y1="309.0313" y2="309.0313"/><text fill="#000000" font-family="sans-serif" font-size="13" lengthAdjust="spacingAndGlyphs" textLength="102" x="393" y="303.9653">Matches Record</text><polygon fill="#75A4FF" points="397,334.1641,387,338.1641,397,342.1641,393,338.1641" style="stroke: #75A4FF; stroke-width: 1.0;"/><line style="stroke: #75A4FF; stroke-width: 1.0;" x1="391" x2="636" y1="338.1641" y2="338.1641"/><text fill="#000000" font-family="sans-serif" font-size="13" lengthAdjust="spacingAndGlyphs" textLength="227" x="403" y="333.0981">Matched Records or Errors/Conflicts</text><polygon fill="#75A4FF" points="779,363.2969,789,367.2969,779,371.2969,783,367.2969" style="stroke: #75A4FF; stroke-width: 1.0;"/><line style="stroke: #75A4FF; stroke-width: 1.0;" x1="386" x2="785" y1="367.2969" y2="367.2969"/><text fill="#000000" font-family="sans-serif" font-size="13" lengthAdjust="spacingAndGlyphs" textLength="253" x="393" y="362.231">Batch Adds Student DIDs to Transcripts</text><path d="M701.5,382.2969 L760.5,382.2969 L760.5,389.2969 L750.5,399.2969 L696.5,399.2969 L696.5,387.2969 " fill="#75A4FF" style="stroke: #EDECFF; stroke-width: 1.0;"/><rect fill="none" height="164.6328" rx="5" ry="5" style="stroke: #EDECFF; stroke-width: 2.0;" width="544.5" x="696.5" y="382.2969"/><text fill="#FFFFFF" font-family="sans-serif" font-size="13" font-weight="bold" lengthAdjust="spacingAndGlyphs" textLength="19" x="711.5" y="395.3638">alt</text><text fill="#000000" font-family="sans-serif" font-size="11" font-weight="bold" lengthAdjust="spacingAndGlyphs" textLength="86" x="775.5" y="394.5073">[IPFS Record]</text><polygon fill="#75A4FF" points="960,416.5625,970,420.5625,960,424.5625,964,420.5625" style="stroke: #75A4FF; stroke-width: 1.0;"/><line style="stroke: #75A4FF; stroke-width: 1.0;" x1="791" x2="966" y1="420.5625" y2="420.5625"/><text fill="#000000" font-family="sans-serif" font-size="13" lengthAdjust="spacingAndGlyphs" textLength="157" x="798" y="415.4966">Published Record to IPFS</text><polygon fill="#75A4FF" points="802,445.6953,792,449.6953,802,453.6953,798,449.6953" style="stroke: #75A4FF; stroke-width: 1.0;"/><line style="stroke: #75A4FF; stroke-width: 1.0;" x1="796" x2="971" y1="449.6953" y2="449.6953"/><text fill="#000000" font-family="sans-serif" font-size="13" lengthAdjust="spacingAndGlyphs" textLength="136" x="808" y="444.6294">Return Published URL</text><polygon fill="#75A4FF" points="1053,474.8281,1063,478.8281,1053,482.8281,1057,478.8281" style="stroke: #75A4FF; stroke-width: 1.0;"/><line style="stroke: #75A4FF; stroke-width: 1.0;" x1="791" x2="1059" y1="478.8281" y2="478.8281"/><text fill="#000000" font-family="sans-serif" font-size="13" lengthAdjust="spacingAndGlyphs" textLength="240" x="798" y="473.7622">Send Published IPFS as Verified Claim</text><rect fill="#FFFFFF" filter="url(#fmbd5yjfewl1j)" height="30.2969" rx="5" ry="5" style="stroke: #75A4FF; stroke-width: 1.5;" width="152" x="1065" y="457.6953"/><text fill="#000000" font-family="sans-serif" font-size="14" lengthAdjust="spacingAndGlyphs" textLength="138" x="1072" y="477.6904">UportMobileStudent</text><line style="stroke: #EDECFF; stroke-width: 1.0; stroke-dasharray: 2.0,2.0;" x1="696.5" x2="1241" y1="503.9922" y2="503.9922"/><text fill="#000000" font-family="sans-serif" font-size="11" font-weight="bold" lengthAdjust="spacingAndGlyphs" textLength="101" x="701.5" y="514.2026">[Mobile Record]</text><polygon fill="#75A4FF" points="1131,534.9297,1141,538.9297,1131,542.9297,1135,538.9297" style="stroke: #75A4FF; stroke-width: 1.0;"/><line style="stroke: #75A4FF; stroke-width: 1.0;" x1="791" x2="1137" y1="538.9297" y2="538.9297"/><text fill="#000000" font-family="sans-serif" font-size="13" lengthAdjust="spacingAndGlyphs" textLength="88" x="798" y="533.8638">Verified Claim</text><!--
@startuml
skinparam roundcorner 10
skinparam BoxPadding 10
skinparam headerFontColor #75A4FF
skinparam headerFontSize 18
skinparam sequence {
  ArrowColor #75A4FF
  GroupBackgroundColor #75A4FF
  GroupBorderColor #EDECFF
  GroupHeaderFontColor #ffffff
  BoxBorderColor #75A4FF
  BoxBackgroundColor #EDECFF
  BoxPadding 10

  ParticipantBorderColor #75A4FF
  ParticipantBackgroundColor #ffffff
  ParticipantPadding 10

  ActorBorderColor #75A4FF
  ActorBackgroundColor #ffffff
  EntityBorderColor #75A4FF
  EntityBackgroundColor #ffffff
  DatabaseBorderColor #75A4FF
  DatabaseBackgroundColor #ffffff

  LifeLineBorderColor #878787
}

actor SchoolAdmin
participant SIS
participant ClientApp
database SchoolDatabase
SchoolAdmin -> ClientApp: Import Records From SIS

alt API Import 
	ClientApp -> SIS : Pull Student Credentials
	SIS -> ClientApp : Specific Credentials Pulled
else CSV Import
	SchoolAdmin -> SIS: Downloads CSV
	SchoolAdmin -> ClientApp : Uploads CSV
end

ClientApp -> SchoolDatabase: Matches Record
SchoolDatabase -> ClientApp: Matched Records or Errors/Conflicts

ClientApp -> BadgeMicroservice : Batch Adds Student DIDs to Transcripts

alt IPFS Record 
	BadgeMicroservice -> WebOrWeb3 : Published Record to IPFS
	WebOrWeb3 -> BadgeMicroservice : Return Published URL
	create UportMobileStudent
	BadgeMicroservice -> UportMobileStudent: Send Published IPFS as Verified Claim 
else Mobile Record
	BadgeMicroservice -> UportMobileStudent : Verified Claim
end
@enduml

PlantUML version 1.2018.13(Mon Nov 26 12:11:51 EST 2018)
(GPL source distribution)
Java Runtime: OpenJDK Runtime Environment
JVM: OpenJDK 64-Bit Server VM
Java Version: 11.0.4+11-post-Ubuntu-1ubuntu219.04
Operating System: Linux
OS Version: 5.0.0-24-generic
Default Encoding: UTF-8
Language: en
Country: US
--></g></svg>