<?xml version="1.0" encoding="UTF-8" standalone="no"?><svg xmlns="http://www.w3.org/2000/svg" xmlns:xlink="http://www.w3.org/1999/xlink" contentScriptType="application/ecmascript" contentStyleType="text/css" height="283px" preserveAspectRatio="none" style="width:311px;height:283px;" version="1.1" viewBox="0 0 311 283" width="311px" zoomAndPan="magnify"><defs><filter height="300%" id="f120g23640l1xs" width="300%" x="-1" y="-1"><feGaussianBlur result="blurOut" stdDeviation="2.0"/><feColorMatrix in="blurOut" result="blurOut2" type="matrix" values="0 0 0 0 0 0 0 0 0 0 0 0 0 0 0 0 0 0 .4 0"/><feOffset dx="4.0" dy="4.0" in="blurOut2" result="blurOut3"/><feBlend in="SourceGraphic" in2="blurOut3" mode="normal"/></filter></defs><g><ellipse cx="78" cy="18" fill="#000000" filter="url(#f120g23640l1xs)" rx="10" ry="10" style="stroke: none; stroke-width: 1.0;"/><rect fill="#FEFECE" filter="url(#f120g23640l1xs)" height="33.9688" rx="12.5" ry="12.5" style="stroke: #A80036; stroke-width: 1.5;" width="92" x="32" y="68"/><text fill="#000000" font-family="sans-serif" font-size="12" lengthAdjust="spacingAndGlyphs" textLength="72" x="42" y="89.1387">Home Page</text><rect fill="#FEFECE" filter="url(#f120g23640l1xs)" height="33.9688" rx="12.5" ry="12.5" style="stroke: #A80036; stroke-width: 1.5;" width="122" x="17" y="142"/><text fill="#000000" font-family="sans-serif" font-size="12" lengthAdjust="spacingAndGlyphs" textLength="102" x="27" y="163.1387">Add New Course</text><rect fill="#FEFECE" filter="url(#f120g23640l1xs)" height="33.9688" rx="12.5" ry="12.5" style="stroke: #A80036; stroke-width: 1.5;" width="144" x="6" y="226.5"/><text fill="#000000" font-family="sans-serif" font-size="12" lengthAdjust="spacingAndGlyphs" textLength="124" x="16" y="247.6387">General Description</text><path d="M170.5,216 L170.5,239.5 L150.0605,243.5 L170.5,247.5 L170.5,271.3984 A0,0 0 0 0 170.5,271.3984 L299.5,271.3984 A0,0 0 0 0 299.5,271.3984 L299.5,226 L289.5,216 L170.5,216 A0,0 0 0 0 170.5,216 " fill="#FBFB77" filter="url(#f120g23640l1xs)" style="stroke: #A80036; stroke-width: 1.0;"/><path d="M289.5,216 L289.5,226 L299.5,226 L289.5,216 " fill="#FBFB77" style="stroke: #A80036; stroke-width: 1.0;"/><text fill="#000000" font-family="sans-serif" font-size="13" lengthAdjust="spacingAndGlyphs" textLength="108" x="176.5" y="233.0669">Course full name</text><text fill="#000000" font-family="sans-serif" font-size="13" lengthAdjust="spacingAndGlyphs" textLength="82" x="176.5" y="248.1997">Course Code</text><text fill="#000000" font-family="sans-serif" font-size="13" lengthAdjust="spacingAndGlyphs" textLength="105" x="176.5" y="263.3325">Course category</text><!--link start to HomePage--><path d="M78,28.1759 C78,37.3186 78,51.0626 78,62.7436 " fill="none" id="start-HomePage" style="stroke: #A80036; stroke-width: 1.0;"/><polygon fill="#A80036" points="78,67.9414,82,58.9414,78,62.9414,74,58.9414,78,67.9414" style="stroke: #A80036; stroke-width: 1.0;"/><!--link HomePage to AddNewCourse--><path d="M78,102.1631 C78,112.4368 78,125.6075 78,136.6831 " fill="none" id="HomePage-AddNewCourse" style="stroke: #A80036; stroke-width: 1.0;"/><polygon fill="#A80036" points="78,141.93,82,132.93,78,136.93,74,132.93,78,141.93" style="stroke: #A80036; stroke-width: 1.0;"/><!--link AddNewCourse to GeneralDescription--><path d="M78,176.0998 C78,189.1567 78,207.2521 78,221.406 " fill="none" id="AddNewCourse-GeneralDescription" style="stroke: #A80036; stroke-width: 1.0;"/><polygon fill="#A80036" points="78,226.4256,82,217.4256,78,221.4256,74,217.4256,78,226.4256" style="stroke: #A80036; stroke-width: 1.0;"/><!--
@startuml
(*) - -> "Home Page" as HomePage
HomePage - -> "Add New Course" as AddNewCourse
AddNewCourse - -> "General Description" as GeneralDescription
note right
	Course full name
	Course Code
	Course category
endnote

@enduml

PlantUML version 1.2018.13(Mon Nov 26 12:11:51 EST 2018)
(GPL source distribution)
Java Runtime: OpenJDK Runtime Environment
JVM: OpenJDK 64-Bit Server VM
Java Version: 11.0.4+11-post-Ubuntu-1ubuntu219.04
Operating System: Linux
OS Version: 5.0.0-24-generic
Default Encoding: UTF-8
Language: en
Country: US
--></g></svg>