<?xml version="1.0" encoding="UTF-8" standalone="no"?><svg xmlns="http://www.w3.org/2000/svg" xmlns:xlink="http://www.w3.org/1999/xlink" contentScriptType="application/ecmascript" contentStyleType="text/css" height="482px" preserveAspectRatio="none" style="width:1164px;height:482px;" version="1.1" viewBox="0 0 1164 482" width="1164px" zoomAndPan="magnify"><defs><filter height="300%" id="f18ofza9tqki5a" width="300%" x="-1" y="-1"><feGaussianBlur result="blurOut" stdDeviation="2.0"/><feColorMatrix in="blurOut" result="blurOut2" type="matrix" values="0 0 0 0 0 0 0 0 0 0 0 0 0 0 0 0 0 0 .4 0"/><feOffset dx="4.0" dy="4.0" in="blurOut2" result="blurOut3"/><feBlend in="SourceGraphic" in2="blurOut3" mode="normal"/></filter></defs><g><text fill="#000000" font-family="sans-serif" font-size="14" font-weight="bold" lengthAdjust="spacingAndGlyphs" textLength="437" x="364.5" y="22.9951">Desktop Web Server App to Uport Mobile Request Flow</text><line style="stroke: #878787; stroke-width: 1.0; stroke-dasharray: 5.0,5.0;" x1="60" x2="60" y1="116.5938" y2="395.6563"/><line style="stroke: #878787; stroke-width: 1.0; stroke-dasharray: 5.0,5.0;" x1="491.5" x2="491.5" y1="116.5938" y2="395.6563"/><line style="stroke: #878787; stroke-width: 1.0; stroke-dasharray: 5.0,5.0;" x1="638.5" x2="638.5" y1="116.5938" y2="395.6563"/><line style="stroke: #878787; stroke-width: 1.0; stroke-dasharray: 5.0,5.0;" x1="767.5" x2="767.5" y1="116.5938" y2="395.6563"/><line style="stroke: #878787; stroke-width: 1.0; stroke-dasharray: 5.0,5.0;" x1="1110" x2="1110" y1="116.5938" y2="395.6563"/><rect fill="#FFFFFF" filter="url(#f18ofza9tqki5a)" height="30.2969" rx="5" ry="5" style="stroke: #75A4FF; stroke-width: 1.5;" width="80" x="18" y="81.2969"/><text fill="#000000" font-family="sans-serif" font-size="14" lengthAdjust="spacingAndGlyphs" textLength="66" x="25" y="101.292">ClientApp</text><rect fill="#FFFFFF" filter="url(#f18ofza9tqki5a)" height="30.2969" rx="5" ry="5" style="stroke: #75A4FF; stroke-width: 1.5;" width="80" x="18" y="394.6563"/><text fill="#000000" font-family="sans-serif" font-size="14" lengthAdjust="spacingAndGlyphs" textLength="66" x="25" y="414.6514">ClientApp</text><rect fill="#FFFFFF" filter="url(#f18ofza9tqki5a)" height="30.2969" rx="5" ry="5" style="stroke: #75A4FF; stroke-width: 1.5;" width="133" x="423.5" y="81.2969"/><text fill="#000000" font-family="sans-serif" font-size="14" lengthAdjust="spacingAndGlyphs" textLength="119" x="430.5" y="101.292">MessagingServer</text><rect fill="#FFFFFF" filter="url(#f18ofza9tqki5a)" height="30.2969" rx="5" ry="5" style="stroke: #75A4FF; stroke-width: 1.5;" width="133" x="423.5" y="394.6563"/><text fill="#000000" font-family="sans-serif" font-size="14" lengthAdjust="spacingAndGlyphs" textLength="119" x="430.5" y="414.6514">MessagingServer</text><rect fill="#FFFFFF" filter="url(#f18ofza9tqki5a)" height="30.2969" rx="5" ry="5" style="stroke: #75A4FF; stroke-width: 1.5;" width="93" x="590.5" y="81.2969"/><text fill="#000000" font-family="sans-serif" font-size="14" lengthAdjust="spacingAndGlyphs" textLength="79" x="597.5" y="101.292">PushServer</text><rect fill="#FFFFFF" filter="url(#f18ofza9tqki5a)" height="30.2969" rx="5" ry="5" style="stroke: #75A4FF; stroke-width: 1.5;" width="93" x="590.5" y="394.6563"/><text fill="#000000" font-family="sans-serif" font-size="14" lengthAdjust="spacingAndGlyphs" textLength="79" x="597.5" y="414.6514">PushServer</text><rect fill="#FFFFFF" filter="url(#f18ofza9tqki5a)" height="30.2969" rx="5" ry="5" style="stroke: #75A4FF; stroke-width: 1.5;" width="97" x="717.5" y="81.2969"/><text fill="#000000" font-family="sans-serif" font-size="14" lengthAdjust="spacingAndGlyphs" textLength="83" x="724.5" y="101.292">UportMobile</text><rect fill="#FFFFFF" filter="url(#f18ofza9tqki5a)" height="30.2969" rx="5" ry="5" style="stroke: #75A4FF; stroke-width: 1.5;" width="97" x="717.5" y="394.6563"/><text fill="#000000" font-family="sans-serif" font-size="14" lengthAdjust="spacingAndGlyphs" textLength="83" x="724.5" y="414.6514">UportMobile</text><text fill="#000000" font-family="sans-serif" font-size="14" lengthAdjust="spacingAndGlyphs" textLength="90" x="1062" y="113.292">SchoolAdmin</text><ellipse cx="1110" cy="43.2969" fill="#FFFFFF" filter="url(#f18ofza9tqki5a)" rx="8" ry="8" style="stroke: #75A4FF; stroke-width: 2.0;"/><path d="M1110,51.2969 L1110,78.2969 M1097,59.2969 L1123,59.2969 M1110,78.2969 L1097,93.2969 M1110,78.2969 L1123,93.2969 " fill="none" filter="url(#f18ofza9tqki5a)" style="stroke: #75A4FF; stroke-width: 2.0;"/><text fill="#000000" font-family="sans-serif" font-size="14" lengthAdjust="spacingAndGlyphs" textLength="90" x="1062" y="407.6514">SchoolAdmin</text><ellipse cx="1110" cy="420.9531" fill="#FFFFFF" filter="url(#f18ofza9tqki5a)" rx="8" ry="8" style="stroke: #75A4FF; stroke-width: 2.0;"/><path d="M1110,428.9531 L1110,455.9531 M1097,436.9531 L1123,436.9531 M1110,455.9531 L1097,470.9531 M1110,455.9531 L1123,470.9531 " fill="none" filter="url(#f18ofza9tqki5a)" style="stroke: #75A4FF; stroke-width: 2.0;"/><line style="stroke: #75A4FF; stroke-width: 1.0;" x1="60" x2="102" y1="147.7266" y2="147.7266"/><line style="stroke: #75A4FF; stroke-width: 1.0;" x1="102" x2="102" y1="147.7266" y2="160.7266"/><line style="stroke: #75A4FF; stroke-width: 1.0;" x1="61" x2="102" y1="160.7266" y2="160.7266"/><polygon fill="#75A4FF" points="71,156.7266,61,160.7266,71,164.7266,67,160.7266" style="stroke: #75A4FF; stroke-width: 1.0;"/><text fill="#000000" font-family="sans-serif" font-size="13" lengthAdjust="spacingAndGlyphs" textLength="418" x="67" y="142.6606">Selective Disclosure Request requesting notifications permissions</text><polygon fill="#75A4FF" points="1098,185.8594,1108,189.8594,1098,193.8594,1102,189.8594" style="stroke: #75A4FF; stroke-width: 1.0;"/><line style="stroke: #75A4FF; stroke-width: 1.0;" x1="60" x2="1104" y1="189.8594" y2="189.8594"/><text fill="#000000" font-family="sans-serif" font-size="13" lengthAdjust="spacingAndGlyphs" textLength="292" x="67" y="184.7935">Show me the MONEY code containing request</text><polygon fill="#75A4FF" points="779,214.9922,769,218.9922,779,222.9922,775,218.9922" style="stroke: #75A4FF; stroke-width: 1.0;"/><line style="stroke: #75A4FF; stroke-width: 1.0;" x1="773" x2="1109" y1="218.9922" y2="218.9922"/><text fill="#000000" font-family="sans-serif" font-size="13" lengthAdjust="spacingAndGlyphs" textLength="96" x="785" y="213.9263">Scans QR code</text><polygon fill="#75A4FF" points="1098,244.125,1108,248.125,1098,252.125,1102,248.125" style="stroke: #75A4FF; stroke-width: 1.0;"/><line style="stroke: #75A4FF; stroke-width: 1.0;" x1="768" x2="1104" y1="248.125" y2="248.125"/><text fill="#000000" font-family="sans-serif" font-size="13" lengthAdjust="spacingAndGlyphs" textLength="124" x="775" y="243.0591">Authorize Request?</text><polygon fill="#75A4FF" points="779,273.2578,769,277.2578,779,281.2578,775,277.2578" style="stroke: #75A4FF; stroke-width: 1.0;"/><line style="stroke: #75A4FF; stroke-width: 1.0;" x1="773" x2="1109" y1="277.2578" y2="277.2578"/><text fill="#000000" font-family="sans-serif" font-size="13" lengthAdjust="spacingAndGlyphs" textLength="87" x="785" y="272.1919">Allow/Disallow</text><line style="stroke: #75A4FF; stroke-width: 1.0;" x1="768" x2="810" y1="306.3906" y2="306.3906"/><line style="stroke: #75A4FF; stroke-width: 1.0;" x1="810" x2="810" y1="306.3906" y2="319.3906"/><line style="stroke: #75A4FF; stroke-width: 1.0;" x1="769" x2="810" y1="319.3906" y2="319.3906"/><polygon fill="#75A4FF" points="779,315.3906,769,319.3906,779,323.3906,775,319.3906" style="stroke: #75A4FF; stroke-width: 1.0;"/><text fill="#000000" font-family="sans-serif" font-size="13" lengthAdjust="spacingAndGlyphs" textLength="328" x="775" y="301.3247">Sign Selective Disclosure Response with PushToken</text><polygon fill="#75A4FF" points="503,344.5234,493,348.5234,503,352.5234,499,348.5234" style="stroke: #75A4FF; stroke-width: 1.0;"/><line style="stroke: #75A4FF; stroke-width: 1.0;" x1="497" x2="767" y1="348.5234" y2="348.5234"/><text fill="#000000" font-family="sans-serif" font-size="13" lengthAdjust="spacingAndGlyphs" textLength="194" x="509" y="343.4575">Selective Disclosure Response</text><polygon fill="#75A4FF" points="71,373.6563,61,377.6563,71,381.6563,67,377.6563" style="stroke: #75A4FF; stroke-width: 1.0;"/><line style="stroke: #75A4FF; stroke-width: 1.0;" x1="65" x2="491" y1="377.6563" y2="377.6563"/><text fill="#000000" font-family="sans-serif" font-size="13" lengthAdjust="spacingAndGlyphs" textLength="194" x="77" y="372.5903">Selective Disclosure Response</text><!--
@startuml
skinparam roundcorner 10
skinparam BoxPadding 10
skinparam headerFontColor #75A4FF
skinparam headerFontSize 18
skinparam sequence {
  ArrowColor #75A4FF
  GroupBackgroundColor #75A4FF
  GroupBorderColor #EDECFF
  GroupHeaderFontColor #ffffff
  BoxBorderColor #75A4FF
  BoxBackgroundColor #EDECFF
  BoxPadding 10

  ParticipantBorderColor #75A4FF
  ParticipantBackgroundColor #ffffff
  ParticipantPadding 10

  ActorBorderColor #75A4FF
  ActorBackgroundColor #ffffff
  EntityBorderColor #75A4FF
  EntityBackgroundColor #ffffff
  DatabaseBorderColor #75A4FF
  DatabaseBackgroundColor #ffffff

  LifeLineBorderColor #878787
}
title Desktop Web Server App to Uport Mobile Request Flow
participant ClientApp
participant MessagingServer
participant PushServer
participant UportMobile
actor SchoolAdmin

ClientApp -> ClientApp : Selective Disclosure Request requesting notifications permissions
ClientApp -> SchoolAdmin : Show me the MONEY code containing request
SchoolAdmin -> UportMobile: Scans QR code
UportMobile -> SchoolAdmin : Authorize Request?
SchoolAdmin -> UportMobile: Allow/Disallow
UportMobile -> UportMobile: Sign Selective Disclosure Response with PushToken
UportMobile -> MessagingServer: Selective Disclosure Response
MessagingServer -> ClientApp: Selective Disclosure Response

@enduml

PlantUML version 1.2018.13(Mon Nov 26 12:11:51 EST 2018)
(GPL source distribution)
Java Runtime: OpenJDK Runtime Environment
JVM: OpenJDK 64-Bit Server VM
Java Version: 11.0.4+11-post-Ubuntu-1ubuntu219.04
Operating System: Linux
OS Version: 5.0.0-24-generic
Default Encoding: UTF-8
Language: en
Country: US
--></g></svg>