<?xml version="1.0" encoding="UTF-8" standalone="no"?><svg xmlns="http://www.w3.org/2000/svg" xmlns:xlink="http://www.w3.org/1999/xlink" contentScriptType="application/ecmascript" contentStyleType="text/css" height="1060px" preserveAspectRatio="none" style="width:1381px;height:1060px;" version="1.1" viewBox="0 0 1381 1060" width="1381px" zoomAndPan="magnify"><defs><filter height="300%" id="f2sk09f19jo36" width="300%" x="-1" y="-1"><feGaussianBlur result="blurOut" stdDeviation="2.0"/><feColorMatrix in="blurOut" result="blurOut2" type="matrix" values="0 0 0 0 0 0 0 0 0 0 0 0 0 0 0 0 0 0 .4 0"/><feOffset dx="4.0" dy="4.0" in="blurOut2" result="blurOut3"/><feBlend in="SourceGraphic" in2="blurOut3" mode="normal"/></filter></defs><g><text fill="#000000" font-family="sans-serif" font-size="14" font-weight="bold" lengthAdjust="spacingAndGlyphs" textLength="177" x="601" y="22.9951">School Invites Student</text><rect fill="#FFFFFF" filter="url(#f2sk09f19jo36)" height="46.2656" rx="5" ry="5" style="stroke: #EDECFF; stroke-width: 2.0;" width="384.5" x="113" y="276.3906"/><rect fill="#FFFFFF" filter="url(#f2sk09f19jo36)" height="191.0781" rx="5" ry="5" style="stroke: #EDECFF; stroke-width: 2.0;" width="537" x="113" y="765.5156"/><rect fill="#FFFFFF" height="43.9375" style="stroke: none; stroke-width: 1.0;" width="537" x="113" y="824.7813"/><rect fill="#FFFFFF" height="43.9375" style="stroke: none; stroke-width: 1.0;" width="537" x="113" y="868.7188"/><rect fill="#FFFFFF" height="43.9375" style="stroke: none; stroke-width: 1.0;" width="537" x="113" y="912.6563"/><line style="stroke: #878787; stroke-width: 1.0; stroke-dasharray: 5.0,5.0;" x1="56" x2="56" y1="116.5938" y2="973.5938"/><line style="stroke: #878787; stroke-width: 1.0; stroke-dasharray: 5.0,5.0;" x1="175" x2="175" y1="116.5938" y2="973.5938"/><line style="stroke: #878787; stroke-width: 1.0; stroke-dasharray: 5.0,5.0;" x1="427.5" x2="427.5" y1="116.5938" y2="973.5938"/><line style="stroke: #878787; stroke-width: 1.0; stroke-dasharray: 5.0,5.0;" x1="644.5" x2="644.5" y1="116.5938" y2="973.5938"/><line style="stroke: #878787; stroke-width: 1.0; stroke-dasharray: 5.0,5.0;" x1="862.5" x2="862.5" y1="116.5938" y2="973.5938"/><line style="stroke: #878787; stroke-width: 1.0; stroke-dasharray: 5.0,5.0;" x1="1204.5" x2="1204.5" y1="116.5938" y2="973.5938"/><text fill="#000000" font-family="sans-serif" font-size="14" lengthAdjust="spacingAndGlyphs" textLength="90" x="8" y="113.292">SchoolAdmin</text><ellipse cx="56" cy="43.2969" fill="#FFFFFF" filter="url(#f2sk09f19jo36)" rx="8" ry="8" style="stroke: #75A4FF; stroke-width: 2.0;"/><path d="M56,51.2969 L56,78.2969 M43,59.2969 L69,59.2969 M56,78.2969 L43,93.2969 M56,78.2969 L69,93.2969 " fill="none" filter="url(#f2sk09f19jo36)" style="stroke: #75A4FF; stroke-width: 2.0;"/><text fill="#000000" font-family="sans-serif" font-size="14" lengthAdjust="spacingAndGlyphs" textLength="90" x="8" y="985.5889">SchoolAdmin</text><ellipse cx="56" cy="998.8906" fill="#FFFFFF" filter="url(#f2sk09f19jo36)" rx="8" ry="8" style="stroke: #75A4FF; stroke-width: 2.0;"/><path d="M56,1006.8906 L56,1033.8906 M43,1014.8906 L69,1014.8906 M56,1033.8906 L43,1048.8906 M56,1033.8906 L69,1048.8906 " fill="none" filter="url(#f2sk09f19jo36)" style="stroke: #75A4FF; stroke-width: 2.0;"/><rect fill="#FFFFFF" filter="url(#f2sk09f19jo36)" height="30.2969" rx="5" ry="5" style="stroke: #75A4FF; stroke-width: 1.5;" width="80" x="133" y="81.2969"/><text fill="#000000" font-family="sans-serif" font-size="14" lengthAdjust="spacingAndGlyphs" textLength="66" x="140" y="101.292">ClientApp</text><rect fill="#FFFFFF" filter="url(#f2sk09f19jo36)" height="30.2969" rx="5" ry="5" style="stroke: #75A4FF; stroke-width: 1.5;" width="80" x="133" y="972.5938"/><text fill="#000000" font-family="sans-serif" font-size="14" lengthAdjust="spacingAndGlyphs" textLength="66" x="140" y="992.5889">ClientApp</text><text fill="#000000" font-family="sans-serif" font-size="14" lengthAdjust="spacingAndGlyphs" textLength="113" x="368.5" y="113.292">SchoolDatabase</text><path d="M410,64.2969 C410,54.2969 428,54.2969 428,54.2969 C428,54.2969 446,54.2969 446,64.2969 L446,90.2969 C446,100.2969 428,100.2969 428,100.2969 C428,100.2969 410,100.2969 410,90.2969 L410,64.2969 " fill="#FEFECE" filter="url(#f2sk09f19jo36)" style="stroke: #000000; stroke-width: 1.5;"/><path d="M410,64.2969 C410,74.2969 428,74.2969 428,74.2969 C428,74.2969 446,74.2969 446,64.2969 " fill="none" style="stroke: #000000; stroke-width: 1.5;"/><text fill="#000000" font-family="sans-serif" font-size="14" lengthAdjust="spacingAndGlyphs" textLength="113" x="368.5" y="985.5889">SchoolDatabase</text><path d="M410,998.8906 C410,988.8906 428,988.8906 428,988.8906 C428,988.8906 446,988.8906 446,998.8906 L446,1024.8906 C446,1034.8906 428,1034.8906 428,1034.8906 C428,1034.8906 410,1034.8906 410,1024.8906 L410,998.8906 " fill="#FEFECE" filter="url(#f2sk09f19jo36)" style="stroke: #000000; stroke-width: 1.5;"/><path d="M410,998.8906 C410,1008.8906 428,1008.8906 428,1008.8906 C428,1008.8906 446,1008.8906 446,998.8906 " fill="none" style="stroke: #000000; stroke-width: 1.5;"/><rect fill="#FFFFFF" filter="url(#f2sk09f19jo36)" height="30.2969" rx="5" ry="5" style="stroke: #75A4FF; stroke-width: 1.5;" width="133" x="576.5" y="81.2969"/><text fill="#000000" font-family="sans-serif" font-size="14" lengthAdjust="spacingAndGlyphs" textLength="119" x="583.5" y="101.292">MessagingServer</text><rect fill="#FFFFFF" filter="url(#f2sk09f19jo36)" height="30.2969" rx="5" ry="5" style="stroke: #75A4FF; stroke-width: 1.5;" width="133" x="576.5" y="972.5938"/><text fill="#000000" font-family="sans-serif" font-size="14" lengthAdjust="spacingAndGlyphs" textLength="119" x="583.5" y="992.5889">MessagingServer</text><rect fill="#FFFFFF" filter="url(#f2sk09f19jo36)" height="30.2969" rx="5" ry="5" style="stroke: #75A4FF; stroke-width: 1.5;" width="97" x="812.5" y="81.2969"/><text fill="#000000" font-family="sans-serif" font-size="14" lengthAdjust="spacingAndGlyphs" textLength="83" x="819.5" y="101.292">UportMobile</text><rect fill="#FFFFFF" filter="url(#f2sk09f19jo36)" height="30.2969" rx="5" ry="5" style="stroke: #75A4FF; stroke-width: 1.5;" width="97" x="812.5" y="972.5938"/><text fill="#000000" font-family="sans-serif" font-size="14" lengthAdjust="spacingAndGlyphs" textLength="83" x="819.5" y="992.5889">UportMobile</text><text fill="#000000" font-family="sans-serif" font-size="14" lengthAdjust="spacingAndGlyphs" textLength="55" x="1174.5" y="113.292">Student</text><ellipse cx="1205" cy="43.2969" fill="#FFFFFF" filter="url(#f2sk09f19jo36)" rx="8" ry="8" style="stroke: #75A4FF; stroke-width: 2.0;"/><path d="M1205,51.2969 L1205,78.2969 M1192,59.2969 L1218,59.2969 M1205,78.2969 L1192,93.2969 M1205,78.2969 L1218,93.2969 " fill="none" filter="url(#f2sk09f19jo36)" style="stroke: #75A4FF; stroke-width: 2.0;"/><text fill="#000000" font-family="sans-serif" font-size="14" lengthAdjust="spacingAndGlyphs" textLength="55" x="1174.5" y="985.5889">Student</text><ellipse cx="1205" cy="998.8906" fill="#FFFFFF" filter="url(#f2sk09f19jo36)" rx="8" ry="8" style="stroke: #75A4FF; stroke-width: 2.0;"/><path d="M1205,1006.8906 L1205,1033.8906 M1192,1014.8906 L1218,1014.8906 M1205,1033.8906 L1192,1048.8906 M1205,1033.8906 L1218,1048.8906 " fill="none" filter="url(#f2sk09f19jo36)" style="stroke: #75A4FF; stroke-width: 2.0;"/><polygon fill="#75A4FF" points="163,143.7266,173,147.7266,163,151.7266,167,147.7266" style="stroke: #75A4FF; stroke-width: 1.0;"/><line style="stroke: #75A4FF; stroke-width: 1.0; stroke-dasharray: 2.0,2.0;" x1="56" x2="169" y1="147.7266" y2="147.7266"/><text fill="#000000" font-family="sans-serif" font-size="13" lengthAdjust="spacingAndGlyphs" textLength="95" x="63" y="142.6606">Enrolls student</text><path d="M8,165.7266 L8,225.7266 A5,5 0 0 0 13,230.7266 L217,230.7266 A5,5 0 0 0 222,225.7266 L222,170.7266 L212,160.7266 L13,160.7266 A5,5 0 0 0 8,165.7266 " fill="#FBFB77" filter="url(#f2sk09f19jo36)" style="stroke: #A80036; stroke-width: 1.0;"/><path d="M212,160.7266 L212,168.2266 A2.5,2.5 0 0 0 214.5,170.7266 L222,170.7266 L212,160.7266 " fill="#FBFB77" style="stroke: #A80036; stroke-width: 1.0;"/><text fill="#000000" font-family="sans-serif" font-size="13" lengthAdjust="spacingAndGlyphs" textLength="94" x="40" y="177.7935">Student Name</text><text fill="#000000" font-family="sans-serif" font-size="13" lengthAdjust="spacingAndGlyphs" textLength="29" x="40" y="192.9263">DOB</text><text fill="#000000" font-family="sans-serif" font-size="13" lengthAdjust="spacingAndGlyphs" textLength="68" x="40" y="208.0591">Student ID</text><text fill="#000000" font-family="sans-serif" font-size="13" lengthAdjust="spacingAndGlyphs" textLength="137" x="40" y="223.1919">Contact: Phone/Email</text><polygon fill="#75A4FF" points="416,257.3906,426,261.3906,416,265.3906,420,261.3906" style="stroke: #75A4FF; stroke-width: 1.0;"/><line style="stroke: #75A4FF; stroke-width: 1.0;" x1="175" x2="422" y1="261.3906" y2="261.3906"/><text fill="#000000" font-family="sans-serif" font-size="13" lengthAdjust="spacingAndGlyphs" textLength="187" x="182" y="256.3247">Check if record already exists</text><path d="M118,276.3906 L177,276.3906 L177,283.3906 L167,293.3906 L113,293.3906 L113,281.3906 " fill="#75A4FF" style="stroke: #EDECFF; stroke-width: 1.0;"/><rect fill="none" height="46.2656" rx="5" ry="5" style="stroke: #EDECFF; stroke-width: 2.0;" width="384.5" x="113" y="276.3906"/><text fill="#FFFFFF" font-family="sans-serif" font-size="13" font-weight="bold" lengthAdjust="spacingAndGlyphs" textLength="19" x="128" y="289.4575">alt</text><text fill="#000000" font-family="sans-serif" font-size="11" font-weight="bold" lengthAdjust="spacingAndGlyphs" textLength="93" x="192" y="288.6011">[record exists]</text><polygon fill="#75A4FF" points="186,310.6563,176,314.6563,186,318.6563,182,314.6563" style="stroke: #75A4FF; stroke-width: 1.0;"/><line style="stroke: #75A4FF; stroke-width: 1.0;" x1="180" x2="427" y1="314.6563" y2="314.6563"/><text fill="#000000" font-family="sans-serif" font-size="13" lengthAdjust="spacingAndGlyphs" textLength="158" x="192" y="309.5903">Student Already Enrolled</text><polygon fill="#75A4FF" points="186,346.7891,176,350.7891,186,354.7891,182,350.7891" style="stroke: #75A4FF; stroke-width: 1.0;"/><line style="stroke: #75A4FF; stroke-width: 1.0;" x1="180" x2="427" y1="350.7891" y2="350.7891"/><text fill="#000000" font-family="sans-serif" font-size="13" lengthAdjust="spacingAndGlyphs" textLength="175" x="192" y="345.7231">No Matching Record. Invite!</text><line style="stroke: #75A4FF; stroke-width: 1.0;" x1="175" x2="217" y1="379.9219" y2="379.9219"/><line style="stroke: #75A4FF; stroke-width: 1.0;" x1="217" x2="217" y1="379.9219" y2="392.9219"/><line style="stroke: #75A4FF; stroke-width: 1.0;" x1="176" x2="217" y1="392.9219" y2="392.9219"/><polygon fill="#75A4FF" points="186,388.9219,176,392.9219,186,396.9219,182,392.9219" style="stroke: #75A4FF; stroke-width: 1.0;"/><text fill="#000000" font-family="sans-serif" font-size="13" lengthAdjust="spacingAndGlyphs" textLength="239" x="182" y="374.856">Selective Disclosure Request Created</text><polygon fill="#75A4FF" points="1193,418.0547,1203,422.0547,1193,426.0547,1197,422.0547" style="stroke: #75A4FF; stroke-width: 1.0;"/><line style="stroke: #75A4FF; stroke-width: 1.0;" x1="175" x2="1199" y1="422.0547" y2="422.0547"/><text fill="#000000" font-family="sans-serif" font-size="13" lengthAdjust="spacingAndGlyphs" textLength="305" x="182" y="416.9888">Contact (email/phone) Donwload Link + SD Link</text><line style="stroke: #75A4FF; stroke-width: 1.0;" x1="1205" x2="1247" y1="451.1875" y2="451.1875"/><line style="stroke: #75A4FF; stroke-width: 1.0;" x1="1247" x2="1247" y1="451.1875" y2="464.1875"/><line style="stroke: #75A4FF; stroke-width: 1.0;" x1="1206" x2="1247" y1="464.1875" y2="464.1875"/><polygon fill="#75A4FF" points="1216,460.1875,1206,464.1875,1216,468.1875,1212,464.1875" style="stroke: #75A4FF; stroke-width: 1.0;"/><text fill="#000000" font-family="sans-serif" font-size="13" lengthAdjust="spacingAndGlyphs" textLength="157" x="1212" y="446.1216">Downloads App from link</text><polygon fill="#75A4FF" points="874,489.3203,864,493.3203,874,497.3203,870,493.3203" style="stroke: #75A4FF; stroke-width: 1.0;"/><line style="stroke: #75A4FF; stroke-width: 1.0;" x1="868" x2="1204" y1="493.3203" y2="493.3203"/><text fill="#000000" font-family="sans-serif" font-size="13" lengthAdjust="spacingAndGlyphs" textLength="96" x="880" y="488.2544">Scans QR code</text><polygon fill="#75A4FF" points="1193,518.4531,1203,522.4531,1193,526.4531,1197,522.4531" style="stroke: #75A4FF; stroke-width: 1.0;"/><line style="stroke: #75A4FF; stroke-width: 1.0;" x1="863" x2="1199" y1="522.4531" y2="522.4531"/><text fill="#000000" font-family="sans-serif" font-size="13" lengthAdjust="spacingAndGlyphs" textLength="124" x="870" y="517.3872">Authorize Request?</text><polygon fill="#75A4FF" points="874,547.5859,864,551.5859,874,555.5859,870,551.5859" style="stroke: #75A4FF; stroke-width: 1.0;"/><line style="stroke: #75A4FF; stroke-width: 1.0;" x1="868" x2="1204" y1="551.5859" y2="551.5859"/><text fill="#000000" font-family="sans-serif" font-size="13" lengthAdjust="spacingAndGlyphs" textLength="87" x="880" y="546.52">Allow/Disallow</text><line style="stroke: #75A4FF; stroke-width: 1.0;" x1="863" x2="905" y1="580.7188" y2="580.7188"/><line style="stroke: #75A4FF; stroke-width: 1.0;" x1="905" x2="905" y1="580.7188" y2="593.7188"/><line style="stroke: #75A4FF; stroke-width: 1.0;" x1="864" x2="905" y1="593.7188" y2="593.7188"/><polygon fill="#75A4FF" points="874,589.7188,864,593.7188,874,597.7188,870,593.7188" style="stroke: #75A4FF; stroke-width: 1.0;"/><text fill="#000000" font-family="sans-serif" font-size="13" lengthAdjust="spacingAndGlyphs" textLength="328" x="870" y="575.6528">Sign Selective Disclosure Response with PushToken</text><path d="M820,611.7188 L820,656.7188 A5,5 0 0 0 825,661.7188 L1243,661.7188 A5,5 0 0 0 1248,656.7188 L1248,616.7188 L1238,606.7188 L825,606.7188 A5,5 0 0 0 820,611.7188 " fill="#FBFB77" filter="url(#f2sk09f19jo36)" style="stroke: #A80036; stroke-width: 1.0;"/><path d="M1238,606.7188 L1238,614.2188 A2.5,2.5 0 0 0 1240.5,616.7188 L1248,616.7188 L1238,606.7188 " fill="#FBFB77" style="stroke: #A80036; stroke-width: 1.0;"/><text fill="#000000" font-family="sans-serif" font-size="13" lengthAdjust="spacingAndGlyphs" textLength="363" x="846" y="623.7856">Response is a verified claim (Telco/Payment App verified)</text><text fill="#000000" font-family="sans-serif" font-size="13" lengthAdjust="spacingAndGlyphs" textLength="13" x="846" y="638.9185">or</text><text fill="#000000" font-family="sans-serif" font-size="13" lengthAdjust="spacingAndGlyphs" textLength="113" x="846" y="654.0513">Self-Signed Claim</text><polygon fill="#75A4FF" points="656,688.25,646,692.25,656,696.25,652,692.25" style="stroke: #75A4FF; stroke-width: 1.0;"/><line style="stroke: #75A4FF; stroke-width: 1.0;" x1="650" x2="862" y1="692.25" y2="692.25"/><text fill="#000000" font-family="sans-serif" font-size="13" lengthAdjust="spacingAndGlyphs" textLength="194" x="662" y="687.1841">Selective Disclosure Response</text><polygon fill="#75A4FF" points="186,717.3828,176,721.3828,186,725.3828,182,721.3828" style="stroke: #75A4FF; stroke-width: 1.0;"/><line style="stroke: #75A4FF; stroke-width: 1.0;" x1="180" x2="644" y1="721.3828" y2="721.3828"/><text fill="#000000" font-family="sans-serif" font-size="13" lengthAdjust="spacingAndGlyphs" textLength="194" x="192" y="716.3169">Selective Disclosure Response</text><polygon fill="#75A4FF" points="416,746.5156,426,750.5156,416,754.5156,420,750.5156" style="stroke: #75A4FF; stroke-width: 1.0;"/><line style="stroke: #75A4FF; stroke-width: 1.0;" x1="175" x2="422" y1="750.5156" y2="750.5156"/><text fill="#000000" font-family="sans-serif" font-size="13" lengthAdjust="spacingAndGlyphs" textLength="186" x="182" y="745.4497">Match Response with records</text><path d="M118,765.5156 L177,765.5156 L177,772.5156 L167,782.5156 L113,782.5156 L113,770.5156 " fill="#75A4FF" style="stroke: #EDECFF; stroke-width: 1.0;"/><rect fill="none" height="191.0781" rx="5" ry="5" style="stroke: #EDECFF; stroke-width: 2.0;" width="537" x="113" y="765.5156"/><text fill="#FFFFFF" font-family="sans-serif" font-size="13" font-weight="bold" lengthAdjust="spacingAndGlyphs" textLength="19" x="128" y="778.5825">alt</text><text fill="#000000" font-family="sans-serif" font-size="11" font-weight="bold" lengthAdjust="spacingAndGlyphs" textLength="246" x="192" y="777.7261">[Recrod Found + Matches, DID !Exists]</text><line style="stroke: #75A4FF; stroke-width: 1.0;" x1="428" x2="470" y1="803.7813" y2="803.7813"/><line style="stroke: #75A4FF; stroke-width: 1.0;" x1="470" x2="470" y1="803.7813" y2="816.7813"/><line style="stroke: #75A4FF; stroke-width: 1.0;" x1="429" x2="470" y1="816.7813" y2="816.7813"/><polygon fill="#75A4FF" points="439,812.7813,429,816.7813,439,820.7813,435,816.7813" style="stroke: #75A4FF; stroke-width: 1.0;"/><text fill="#000000" font-family="sans-serif" font-size="13" lengthAdjust="spacingAndGlyphs" textLength="203" x="435" y="798.7153">Student DID and BoxPub Added</text><line style="stroke: #EDECFF; stroke-width: 1.0; stroke-dasharray: 2.0,2.0;" x1="113" x2="650" y1="825.7813" y2="825.7813"/><text fill="#000000" font-family="sans-serif" font-size="11" font-weight="bold" lengthAdjust="spacingAndGlyphs" textLength="145" x="118" y="835.9917">[Recrodord Not Found]</text><polygon fill="#75A4FF" points="186,856.7188,176,860.7188,186,864.7188,182,860.7188" style="stroke: #75A4FF; stroke-width: 1.0;"/><line style="stroke: #75A4FF; stroke-width: 1.0;" x1="180" x2="427" y1="860.7188" y2="860.7188"/><text fill="#000000" font-family="sans-serif" font-size="13" lengthAdjust="spacingAndGlyphs" textLength="87" x="192" y="855.6528">Add Student?</text><line style="stroke: #EDECFF; stroke-width: 1.0; stroke-dasharray: 2.0,2.0;" x1="113" x2="650" y1="869.7188" y2="869.7188"/><text fill="#000000" font-family="sans-serif" font-size="11" font-weight="bold" lengthAdjust="spacingAndGlyphs" textLength="166" x="118" y="879.9292">[Record Found DID Exists]</text><polygon fill="#75A4FF" points="186,900.6563,176,904.6563,186,908.6563,182,904.6563" style="stroke: #75A4FF; stroke-width: 1.0;"/><line style="stroke: #75A4FF; stroke-width: 1.0;" x1="180" x2="427" y1="904.6563" y2="904.6563"/><text fill="#000000" font-family="sans-serif" font-size="13" lengthAdjust="spacingAndGlyphs" textLength="87" x="192" y="899.5903">Add Student?</text><line style="stroke: #EDECFF; stroke-width: 1.0; stroke-dasharray: 2.0,2.0;" x1="113" x2="650" y1="913.6563" y2="913.6563"/><text fill="#000000" font-family="sans-serif" font-size="11" font-weight="bold" lengthAdjust="spacingAndGlyphs" textLength="201" x="118" y="923.8667">[Record Found Details Conflict]</text><polygon fill="#75A4FF" points="186,944.5938,176,948.5938,186,952.5938,182,948.5938" style="stroke: #75A4FF; stroke-width: 1.0;"/><line style="stroke: #75A4FF; stroke-width: 1.0;" x1="180" x2="427" y1="948.5938" y2="948.5938"/><text fill="#000000" font-family="sans-serif" font-size="13" lengthAdjust="spacingAndGlyphs" textLength="87" x="192" y="943.5278">Add Student?</text><!--
@startuml
skinparam roundcorner 10
skinparam BoxPadding 10
skinparam headerFontColor #75A4FF
skinparam headerFontSize 18
skinparam sequence {
  ArrowColor #75A4FF
  GroupBackgroundColor #75A4FF
  GroupBorderColor #EDECFF
  GroupHeaderFontColor #ffffff
  BoxBorderColor #75A4FF
  BoxBackgroundColor #EDECFF
  BoxPadding 10

  ParticipantBorderColor #75A4FF
  ParticipantBackgroundColor #ffffff
  ParticipantPadding 10

  ActorBorderColor #75A4FF
  ActorBackgroundColor #ffffff
  EntityBorderColor #75A4FF
  EntityBackgroundColor #ffffff
  DatabaseBorderColor #75A4FF
  DatabaseBackgroundColor #ffffff

  LifeLineBorderColor #878787
}
title School Invites Student 
actor SchoolAdmin
participant ClientApp
database SchoolDatabase
participant MessagingServer
participant UportMobile
actor Student


SchoolAdmin - -> ClientApp: Enrolls student
note over SchoolAdmin, ClientApp
	Student Name
	DOB
	Student ID
	Contact: Phone/Email
endnote


ClientApp -> SchoolDatabase: Check if record already exists 
alt record exists
	SchoolDatabase -> ClientApp: Student Already Enrolled
end

SchoolDatabase -> ClientApp: No Matching Record. Invite!

ClientApp -> ClientApp: Selective Disclosure Request Created  
ClientApp -> Student: Contact (email/phone) Donwload Link + SD Link
Student -> Student: Downloads App from link

Student -> UportMobile: Scans QR code
UportMobile -> Student : Authorize Request?
Student -> UportMobile: Allow/Disallow
UportMobile -> UportMobile: Sign Selective Disclosure Response with PushToken
note over Student, UportMobile
	Response is a verified claim (Telco/Payment App verified)
	or 
	Self-Signed Claim
endnote
UportMobile -> MessagingServer: Selective Disclosure Response
MessagingServer -> ClientApp: Selective Disclosure Response

ClientApp -> SchoolDatabase: Match Response with records

alt Recrod Found + Matches, DID !Exists
	SchoolDatabase -> SchoolDatabase: Student DID and BoxPub Added  
else Recrodord Not Found
	SchoolDatabase -> ClientApp : Add Student?

else Record Found DID Exists
	SchoolDatabase -> ClientApp : Add Student?

else Record Found Details Conflict
	SchoolDatabase -> ClientApp : Add Student?

end




@enduml

PlantUML version 1.2018.13(Mon Nov 26 12:11:51 EST 2018)
(GPL source distribution)
Java Runtime: OpenJDK Runtime Environment
JVM: OpenJDK 64-Bit Server VM
Java Version: 11.0.4+11-post-Ubuntu-1ubuntu219.04
Operating System: Linux
OS Version: 5.0.0-24-generic
Default Encoding: UTF-8
Language: en
Country: US
--></g></svg>