<?xml version="1.0" encoding="UTF-8" standalone="no"?><svg xmlns="http://www.w3.org/2000/svg" xmlns:xlink="http://www.w3.org/1999/xlink" contentScriptType="application/ecmascript" contentStyleType="text/css" height="758px" preserveAspectRatio="none" style="width:1027px;height:758px;" version="1.1" viewBox="0 0 1027 758" width="1027px" zoomAndPan="magnify"><defs><filter height="300%" id="f17qf3nkjpx4l9" width="300%" x="-1" y="-1"><feGaussianBlur result="blurOut" stdDeviation="2.0"/><feColorMatrix in="blurOut" result="blurOut2" type="matrix" values="0 0 0 0 0 0 0 0 0 0 0 0 0 0 0 0 0 0 .4 0"/><feOffset dx="4.0" dy="4.0" in="blurOut2" result="blurOut3"/><feBlend in="SourceGraphic" in2="blurOut3" mode="normal"/></filter></defs><g><ellipse cx="472.5" cy="18" fill="#000000" filter="url(#f17qf3nkjpx4l9)" rx="10" ry="10" style="stroke: none; stroke-width: 1.0;"/><rect fill="#FEFECE" filter="url(#f17qf3nkjpx4l9)" height="33.9688" rx="12.5" ry="12.5" style="stroke: #A80036; stroke-width: 1.5;" width="116" x="414.5" y="69"/><text fill="#000000" font-family="sans-serif" font-size="12" lengthAdjust="spacingAndGlyphs" textLength="96" x="424.5" y="90.1387">Downloads App</text><polygon fill="#FEFECE" filter="url(#f17qf3nkjpx4l9)" points="472.5,144,484.5,156,472.5,168,460.5,156,472.5,144" style="stroke: #A80036; stroke-width: 1.5;"/><rect fill="#FEFECE" filter="url(#f17qf3nkjpx4l9)" height="33.9688" rx="12.5" ry="12.5" style="stroke: #A80036; stroke-width: 1.5;" width="167" x="304" y="222"/><text fill="#000000" font-family="sans-serif" font-size="12" lengthAdjust="spacingAndGlyphs" textLength="147" x="314" y="243.1387">New User Registeration</text><polygon fill="#FEFECE" filter="url(#f17qf3nkjpx4l9)" points="346.5,297,358.5,309,346.5,321,334.5,309,346.5,297" style="stroke: #A80036; stroke-width: 1.5;"/><rect fill="#FEFECE" filter="url(#f17qf3nkjpx4l9)" height="33.9688" rx="12.5" ry="12.5" style="stroke: #A80036; stroke-width: 1.5;" width="151" x="6" y="463"/><text fill="#000000" font-family="sans-serif" font-size="12" lengthAdjust="spacingAndGlyphs" textLength="131" x="16" y="484.1387">3rd Party Verification</text><rect fill="#FEFECE" filter="url(#f17qf3nkjpx4l9)" height="33.9688" rx="12.5" ry="12.5" style="stroke: #A80036; stroke-width: 1.5;" width="103" x="10" y="551"/><text fill="#000000" font-family="sans-serif" font-size="12" lengthAdjust="spacingAndGlyphs" textLength="83" x="20" y="572.1387">We Chat Flow</text><rect fill="#FEFECE" filter="url(#f17qf3nkjpx4l9)" height="33.9688" rx="12.5" ry="12.5" style="stroke: #A80036; stroke-width: 1.5;" width="93" x="17" y="626"/><text fill="#000000" font-family="sans-serif" font-size="12" lengthAdjust="spacingAndGlyphs" textLength="73" x="27" y="647.1387">WC Process</text><rect fill="#FEFECE" filter="url(#f17qf3nkjpx4l9)" height="33.9688" rx="12.5" ry="12.5" style="stroke: #A80036; stroke-width: 1.5;" width="158" x="115.5" y="714"/><text fill="#000000" font-family="sans-serif" font-size="12" lengthAdjust="spacingAndGlyphs" textLength="138" x="125.5" y="735.1387">Form With Pulled Data</text><rect fill="#FEFECE" filter="url(#f17qf3nkjpx4l9)" height="33.9688" rx="12.5" ry="12.5" style="stroke: #A80036; stroke-width: 1.5;" width="87" x="133" y="551"/><text fill="#000000" font-family="sans-serif" font-size="12" lengthAdjust="spacingAndGlyphs" textLength="67" x="143" y="572.1387">AliPay Flow</text><rect fill="#FEFECE" filter="url(#f17qf3nkjpx4l9)" height="33.9688" rx="12.5" ry="12.5" style="stroke: #A80036; stroke-width: 1.5;" width="90" x="131.5" y="626"/><text fill="#000000" font-family="sans-serif" font-size="12" lengthAdjust="spacingAndGlyphs" textLength="70" x="141.5" y="647.1387">AP Process</text><rect fill="#FEFECE" filter="url(#f17qf3nkjpx4l9)" height="33.9688" rx="12.5" ry="12.5" style="stroke: #A80036; stroke-width: 1.5;" width="114" x="289.5" y="375"/><text fill="#000000" font-family="sans-serif" font-size="12" lengthAdjust="spacingAndGlyphs" textLength="94" x="299.5" y="396.1387">Phone or Email</text><rect fill="#FEFECE" filter="url(#f17qf3nkjpx4l9)" height="33.9688" rx="12.5" ry="12.5" style="stroke: #A80036; stroke-width: 1.5;" width="134" x="177.5" y="463"/><text fill="#000000" font-family="sans-serif" font-size="12" lengthAdjust="spacingAndGlyphs" textLength="114" x="187.5" y="484.1387">Phone Verification</text><rect fill="#FEFECE" filter="url(#f17qf3nkjpx4l9)" height="33.9688" rx="12.5" ry="12.5" style="stroke: #A80036; stroke-width: 1.5;" width="43" x="240" y="551"/><text fill="#000000" font-family="sans-serif" font-size="12" lengthAdjust="spacingAndGlyphs" textLength="23" x="250" y="572.1387">2FA</text><polygon fill="#FEFECE" filter="url(#f17qf3nkjpx4l9)" points="261.5,631,273.5,643,261.5,655,249.5,643,261.5,631" style="stroke: #A80036; stroke-width: 1.5;"/><rect fill="#FEFECE" filter="url(#f17qf3nkjpx4l9)" height="33.9688" rx="12.5" ry="12.5" style="stroke: #A80036; stroke-width: 1.5;" width="101" x="295" y="714"/><text fill="#000000" font-family="sans-serif" font-size="12" lengthAdjust="spacingAndGlyphs" textLength="81" x="305" y="735.1387">Manual Entry</text><rect fill="#FEFECE" filter="url(#f17qf3nkjpx4l9)" height="33.9688" rx="12.5" ry="12.5" style="stroke: #A80036; stroke-width: 1.5;" width="127" x="332" y="463"/><text fill="#000000" font-family="sans-serif" font-size="12" lengthAdjust="spacingAndGlyphs" textLength="107" x="342" y="484.1387">Email Verification</text><rect fill="#FEFECE" filter="url(#f17qf3nkjpx4l9)" height="33.9688" rx="12.5" ry="12.5" style="stroke: #A80036; stroke-width: 1.5;" width="139" x="326" y="551"/><text fill="#000000" font-family="sans-serif" font-size="12" lengthAdjust="spacingAndGlyphs" textLength="119" x="336" y="572.1387">Email Authorization</text><polygon fill="#FEFECE" filter="url(#f17qf3nkjpx4l9)" points="395.5,631,407.5,643,395.5,655,383.5,643,395.5,631" style="stroke: #A80036; stroke-width: 1.5;"/><rect fill="#FEFECE" filter="url(#f17qf3nkjpx4l9)" height="33.9688" rx="12.5" ry="12.5" style="stroke: #A80036; stroke-width: 1.5;" width="122" x="417.5" y="714"/><text fill="#000000" font-family="sans-serif" font-size="12" lengthAdjust="spacingAndGlyphs" textLength="102" x="427.5" y="735.1387">Failure Message</text><rect fill="#FEFECE" filter="url(#f17qf3nkjpx4l9)" height="33.9688" rx="12.5" ry="12.5" style="stroke: #A80036; stroke-width: 1.5;" width="135" x="498" y="222"/><text fill="#000000" font-family="sans-serif" font-size="12" lengthAdjust="spacingAndGlyphs" textLength="115" x="508" y="243.1387">Existing User FLow</text><polygon fill="#FEFECE" filter="url(#f17qf3nkjpx4l9)" points="594.5,297,606.5,309,594.5,321,582.5,309,594.5,297" style="stroke: #A80036; stroke-width: 1.5;"/><rect fill="#FEFECE" filter="url(#f17qf3nkjpx4l9)" height="33.9688" rx="12.5" ry="12.5" style="stroke: #A80036; stroke-width: 1.5;" width="122" x="533.5" y="375"/><text fill="#000000" font-family="sans-serif" font-size="12" lengthAdjust="spacingAndGlyphs" textLength="102" x="543.5" y="396.1387">New Device Flow</text><rect fill="#FEFECE" filter="url(#f17qf3nkjpx4l9)" height="33.9688" rx="12.5" ry="12.5" style="stroke: #A80036; stroke-width: 1.5;" width="37" x="576" y="463"/><text fill="#000000" font-family="sans-serif" font-size="12" lengthAdjust="spacingAndGlyphs" textLength="17" x="586" y="484.1387">QR</text><rect fill="#FEFECE" filter="url(#f17qf3nkjpx4l9)" height="33.9688" rx="12.5" ry="12.5" style="stroke: #A80036; stroke-width: 1.5;" width="202" x="633.5" y="463"/><text fill="#000000" font-family="sans-serif" font-size="12" lengthAdjust="spacingAndGlyphs" textLength="182" x="643.5" y="484.1387">Push Note on Existing Device</text><rect fill="#FEFECE" filter="url(#f17qf3nkjpx4l9)" height="33.9688" rx="12.5" ry="12.5" style="stroke: #A80036; stroke-width: 1.5;" width="77" x="479" y="463"/><text fill="#000000" font-family="sans-serif" font-size="12" lengthAdjust="spacingAndGlyphs" textLength="57" x="489" y="484.1387">Enter Pin</text><rect fill="#FEFECE" filter="url(#f17qf3nkjpx4l9)" height="33.9688" rx="12.5" ry="12.5" style="stroke: #A80036; stroke-width: 1.5;" width="115" x="513" y="551"/><text fill="#000000" font-family="sans-serif" font-size="12" lengthAdjust="spacingAndGlyphs" textLength="95" x="523" y="572.1387">Authorize Login</text><polygon fill="#FEFECE" filter="url(#f17qf3nkjpx4l9)" points="526.5,631,538.5,643,526.5,655,514.5,643,526.5,631" style="stroke: #A80036; stroke-width: 1.5;"/><rect fill="#FEFECE" filter="url(#f17qf3nkjpx4l9)" height="33.9688" rx="12.5" ry="12.5" style="stroke: #A80036; stroke-width: 1.5;" width="146" x="811.5" y="375"/><text fill="#000000" font-family="sans-serif" font-size="12" lengthAdjust="spacingAndGlyphs" textLength="126" x="821.5" y="396.1387">Recover Device Flow</text><rect fill="#FEFECE" filter="url(#f17qf3nkjpx4l9)" height="33.9688" rx="12.5" ry="12.5" style="stroke: #A80036; stroke-width: 1.5;" width="57" x="856" y="463"/><text fill="#000000" font-family="sans-serif" font-size="12" lengthAdjust="spacingAndGlyphs" textLength="37" x="866" y="484.1387">Social</text><rect fill="#FEFECE" filter="url(#f17qf3nkjpx4l9)" height="33.9688" rx="12.5" ry="12.5" style="stroke: #A80036; stroke-width: 1.5;" width="83" x="933" y="463"/><text fill="#000000" font-family="sans-serif" font-size="12" lengthAdjust="spacingAndGlyphs" textLength="63" x="943" y="484.1387">Mnemonic</text><!--link start to Downloads App--><path d="M472.5,28.0336 C472.5,37.4082 472.5,51.7285 472.5,63.7898 " fill="none" id="start-Downloads App" style="stroke: #A80036; stroke-width: 1.0;"/><polygon fill="#A80036" points="472.5,68.7995,476.5,59.7995,472.5,63.7995,468.5,59.7995,472.5,68.7995" style="stroke: #A80036; stroke-width: 1.0;"/><!--link Downloads App to #5--><path d="M472.5,103.3034 C472.5,114.1588 472.5,128.0963 472.5,138.9108 " fill="none" id="Downloads App-#5" style="stroke: #A80036; stroke-width: 1.0;"/><polygon fill="#A80036" points="472.5,143.9417,476.5,134.9417,472.5,138.9417,468.5,134.9417,472.5,143.9417" style="stroke: #A80036; stroke-width: 1.0;"/><text fill="#000000" font-family="sans-serif" font-size="11" lengthAdjust="spacingAndGlyphs" textLength="55" x="404.0938" y="133.5449">New User</text><!--link #5 to New User Registeration--><path d="M466.387,161.9692 C454.539,173.5384 427.943,199.5086 408.9084,218.0954 " fill="none" id="#5-New User Registeration" style="stroke: #A80036; stroke-width: 1.0;"/><polygon fill="#A80036" points="405.2089,221.7078,414.4427,218.2819,408.7863,218.2146,408.8536,212.5581,405.2089,221.7078" style="stroke: #A80036; stroke-width: 1.0;"/><text fill="#000000" font-family="sans-serif" font-size="11" lengthAdjust="spacingAndGlyphs" textLength="23" x="438.5" y="199.2104">true</text><!--link New User Registeration to #10--><path d="M377.3652,256.3034 C369.9784,268.9149 360.1552,285.6863 353.5943,296.8878 " fill="none" id="New User Registeration-#10" style="stroke: #A80036; stroke-width: 1.0;"/><polygon fill="#A80036" points="350.9989,301.319,358.9992,295.5748,353.526,297.0046,352.0962,291.5315,350.9989,301.319" style="stroke: #A80036; stroke-width: 1.0;"/><text fill="#000000" font-family="sans-serif" font-size="11" lengthAdjust="spacingAndGlyphs" textLength="122" x="366.1455" y="296.4588">Login Using 3rd Party</text><!--link #10 to 3RD--><path d="M339.1358,313.752 C306.4008,334.8753 173.0258,420.94 112.1088,460.2486 " fill="none" id="#10-3RD" style="stroke: #A80036; stroke-width: 1.0;"/><polygon fill="#A80036" points="107.8504,462.9965,117.5814,461.4776,112.0516,460.2855,113.2438,454.7556,107.8504,462.9965" style="stroke: #A80036; stroke-width: 1.0;"/><text fill="#000000" font-family="sans-serif" font-size="11" lengthAdjust="spacingAndGlyphs" textLength="23" x="241.5" y="396.2104">true</text><!--link 3RD to WCF--><path d="M77.5486,497.386 C74.378,511.3367 69.9079,531.0051 66.4904,546.0424 " fill="none" id="3RD-WCF" style="stroke: #A80036; stroke-width: 1.0;"/><polygon fill="#A80036" points="65.3751,550.9496,71.2703,543.0599,66.4832,546.0739,63.4692,541.2869,65.3751,550.9496" style="stroke: #A80036; stroke-width: 1.0;"/><text fill="#000000" font-family="sans-serif" font-size="11" lengthAdjust="spacingAndGlyphs" textLength="46" x="74.5" y="528.2104">We Chat</text><!--link WCF to WCP--><path d="M61.9538,585.0187 C62.2357,595.5877 62.601,609.2879 62.9058,620.7171 " fill="none" id="WCF-WCP" style="stroke: #A80036; stroke-width: 1.0;"/><polygon fill="#A80036" points="63.041,625.7891,66.7997,616.6857,62.9077,620.7909,58.8025,616.8989,63.041,625.7891" style="stroke: #A80036; stroke-width: 1.0;"/><!--link WCP to FormPop--><path d="M89.0691,660.1762 C110.7991,674.7735 142.0108,695.7401 164.8353,711.0726 " fill="none" id="WCP-FormPop" style="stroke: #A80036; stroke-width: 1.0;"/><polygon fill="#A80036" points="168.9954,713.8671,163.755,705.5281,164.8449,711.079,159.294,712.1689,168.9954,713.8671" style="stroke: #A80036; stroke-width: 1.0;"/><!--link 3RD to APF--><path d="M103.4138,497.2328 C110.8845,503.3123 119.1918,510.3039 126.5,517 C136.7393,526.3818 147.5896,537.3162 156.5563,546.649 " fill="none" id="3RD-APF" style="stroke: #A80036; stroke-width: 1.0;"/><polygon fill="#A80036" points="160.2766,550.5415,156.95,541.2715,156.822,546.9269,151.1666,546.7989,160.2766,550.5415" style="stroke: #A80036; stroke-width: 1.0;"/><text fill="#000000" font-family="sans-serif" font-size="11" lengthAdjust="spacingAndGlyphs" textLength="37" x="142.5" y="528.2104">Ali Pay</text><!--link APF to APP--><path d="M176.5,585.0187 C176.5,595.5877 176.5,609.2879 176.5,620.7171 " fill="none" id="APF-APP" style="stroke: #A80036; stroke-width: 1.0;"/><polygon fill="#A80036" points="176.5,625.7891,180.5,616.7891,176.5,620.7891,172.5,616.7891,176.5,625.7891" style="stroke: #A80036; stroke-width: 1.0;"/><!--link APP to FormPop--><path d="M180.0562,660.386 C182.9098,674.3367 186.9329,694.0051 190.0087,709.0424 " fill="none" id="APP-FormPop" style="stroke: #A80036; stroke-width: 1.0;"/><polygon fill="#A80036" points="191.0124,713.9496,193.1277,704.3306,190.0104,709.051,185.2899,705.9338,191.0124,713.9496" style="stroke: #A80036; stroke-width: 1.0;"/><!--link #10 to PE--><path d="M346.5,321.2469 C346.5,333.9682 346.5,354.1511 346.5,369.7108 " fill="none" id="#10-PE" style="stroke: #A80036; stroke-width: 1.0;"/><polygon fill="#A80036" points="346.5,374.7929,350.5,365.7929,346.5,369.7929,342.5,365.7929,346.5,374.7929" style="stroke: #A80036; stroke-width: 1.0;"/><text fill="#000000" font-family="sans-serif" font-size="11" lengthAdjust="spacingAndGlyphs" textLength="28" x="347.5" y="352.2104">false</text><!--link PE to PV--><path d="M326.3481,409.386 C309.6155,423.822 285.7865,444.3803 268.152,459.5943 " fill="none" id="PE-PV" style="stroke: #A80036; stroke-width: 1.0;"/><polygon fill="#A80036" points="264.263,462.9496,273.6903,460.0989,268.0487,459.6833,268.4642,454.0418,264.263,462.9496" style="stroke: #A80036; stroke-width: 1.0;"/><text fill="#000000" font-family="sans-serif" font-size="11" lengthAdjust="spacingAndGlyphs" textLength="35" x="303.5" y="440.2104">Phone</text><!--link PV to 2FA--><path d="M247.8587,497.386 C250.5302,511.2154 254.2873,530.6635 257.1822,545.6491 " fill="none" id="PV-2FA" style="stroke: #A80036; stroke-width: 1.0;"/><polygon fill="#A80036" points="258.2062,550.9496,260.4264,541.3543,257.2578,546.0404,252.5717,542.8717,258.2062,550.9496" style="stroke: #A80036; stroke-width: 1.0;"/><!--link 2FA to #32--><path d="M261.5,585.0187 C261.5,597.1619 261.5,613.4383 261.5,625.6547 " fill="none" id="2FA-#32" style="stroke: #A80036; stroke-width: 1.0;"/><polygon fill="#A80036" points="261.5,630.9526,265.5,621.9526,261.5,625.9526,257.5,621.9526,261.5,630.9526" style="stroke: #A80036; stroke-width: 1.0;"/><text fill="#000000" font-family="sans-serif" font-size="11" lengthAdjust="spacingAndGlyphs" textLength="105" x="276.424" y="620.4175">ID verifiation Telco</text><!--link #32 to FormPop--><path d="M253.3808,647.1457 C242.5841,653.0485 223.5783,664.8589 212.5,680 C206.2678,688.5178 202.0382,699.3882 199.2541,708.9029 " fill="none" id="#32-FormPop" style="stroke: #A80036; stroke-width: 1.0;"/><polygon fill="#A80036" points="197.927,713.7353,204.1677,706.116,199.2512,708.9138,196.4533,703.9973,197.927,713.7353" style="stroke: #A80036; stroke-width: 1.0;"/><text fill="#000000" font-family="sans-serif" font-size="11" lengthAdjust="spacingAndGlyphs" textLength="23" x="213.5" y="691.2104">true</text><!--link #32 to ME--><path d="M258.8586,652.5405 C256.4166,663.5115 254.2779,681.6005 262.5,694 C269.1372,704.0093 279.1664,711.3376 289.9833,716.6942 " fill="none" id="#32-ME" style="stroke: #A80036; stroke-width: 1.0;"/><polygon fill="#A80036" points="294.6597,718.8712,288.1886,711.4466,290.1268,716.761,284.8123,718.6992,294.6597,718.8712" style="stroke: #A80036; stroke-width: 1.0;"/><text fill="#000000" font-family="sans-serif" font-size="11" lengthAdjust="spacingAndGlyphs" textLength="28" x="263.5" y="691.2104">false</text><!--link PE to EV--><path d="M356.1808,409.386 C364.0164,423.458 375.0913,443.3476 383.4915,458.4337 " fill="none" id="PE-EV" style="stroke: #A80036; stroke-width: 1.0;"/><polygon fill="#A80036" points="386.006,462.9496,385.1224,453.1405,383.5736,458.5812,378.1329,457.0324,386.006,462.9496" style="stroke: #A80036; stroke-width: 1.0;"/><text fill="#000000" font-family="sans-serif" font-size="11" lengthAdjust="spacingAndGlyphs" textLength="31" x="374.5" y="440.2104">Email</text><!--link EV to EA--><path d="M395.5,497.386 C395.5,511.2154 395.5,530.6635 395.5,545.6491 " fill="none" id="EV-EA" style="stroke: #A80036; stroke-width: 1.0;"/><polygon fill="#A80036" points="395.5,550.9496,399.5,541.9496,395.5,545.9496,391.5,541.9496,395.5,550.9496" style="stroke: #A80036; stroke-width: 1.0;"/><!--link EA to #42--><path d="M395.5,585.0187 C395.5,597.1619 395.5,613.4383 395.5,625.6547 " fill="none" id="EA-#42" style="stroke: #A80036; stroke-width: 1.0;"/><polygon fill="#A80036" points="395.5,630.9526,399.5,621.9526,395.5,625.9526,391.5,621.9526,395.5,630.9526" style="stroke: #A80036; stroke-width: 1.0;"/><text fill="#000000" font-family="sans-serif" font-size="11" lengthAdjust="spacingAndGlyphs" textLength="0" x="394.525" y="620.5611"/><!--link #42 to FM--><path d="M401.4692,649.3287 C413.2475,661.8166 439.952,690.1298 458.5957,709.8967 " fill="none" id="#42-FM" style="stroke: #A80036; stroke-width: 1.0;"/><polygon fill="#A80036" points="462.2102,713.7289,458.9447,704.4371,458.7795,710.0916,453.125,709.9263,462.2102,713.7289" style="stroke: #A80036; stroke-width: 1.0;"/><text fill="#000000" font-family="sans-serif" font-size="11" lengthAdjust="spacingAndGlyphs" textLength="38" x="442.5" y="691.2104">Failure</text><!--link #42 to ME--><path d="M391.0628,650.8094 C383.7038,663.7613 368.7178,690.1367 357.9397,709.1062 " fill="none" id="#42-ME" style="stroke: #A80036; stroke-width: 1.0;"/><polygon fill="#A80036" points="355.2973,713.7567,363.2212,707.9076,357.7673,709.4094,356.2655,703.9555,355.2973,713.7567" style="stroke: #A80036; stroke-width: 1.0;"/><text fill="#000000" font-family="sans-serif" font-size="11" lengthAdjust="spacingAndGlyphs" textLength="48" x="373.5" y="691.2104">Success</text><!--link #5 to Existing User FLow--><path d="M478.8923,161.7049 C491.7958,173.2209 521.5142,199.7439 542.5284,218.4984 " fill="none" id="#5-Existing User FLow" style="stroke: #A80036; stroke-width: 1.0;"/><polygon fill="#A80036" points="546.3449,221.9046,542.2936,212.9276,542.6145,218.5753,536.9667,218.8962,546.3449,221.9046" style="stroke: #A80036; stroke-width: 1.0;"/><text fill="#000000" font-family="sans-serif" font-size="11" lengthAdjust="spacingAndGlyphs" textLength="28" x="522.5" y="199.2104">false</text><!--link Existing User FLow to #50--><path d="M572.6685,256.3034 C577.6721,268.381 584.2563,284.2737 588.8806,295.4359 " fill="none" id="Existing User FLow-#50" style="stroke: #A80036; stroke-width: 1.0;"/><polygon fill="#A80036" points="590.8547,300.2009,591.1056,290.3552,588.941,295.5816,583.7147,293.4171,590.8547,300.2009" style="stroke: #A80036; stroke-width: 1.0;"/><text fill="#000000" font-family="sans-serif" font-size="11" lengthAdjust="spacingAndGlyphs" textLength="84" x="490.5936" y="293.2825">Access to Auth</text><!--link #50 to NDF--><path d="M594.5,321.2469 C594.5,333.9682 594.5,354.1511 594.5,369.7108 " fill="none" id="#50-NDF" style="stroke: #A80036; stroke-width: 1.0;"/><polygon fill="#A80036" points="594.5,374.7929,598.5,365.7929,594.5,369.7929,590.5,365.7929,594.5,374.7929" style="stroke: #A80036; stroke-width: 1.0;"/><text fill="#000000" font-family="sans-serif" font-size="11" lengthAdjust="spacingAndGlyphs" textLength="23" x="595.5" y="352.2104">true</text><!--link NDF to QR--><path d="M594.5,409.386 C594.5,423.2154 594.5,442.6635 594.5,457.6491 " fill="none" id="NDF-QR" style="stroke: #A80036; stroke-width: 1.0;"/><polygon fill="#A80036" points="594.5,462.9496,598.5,453.9496,594.5,457.9496,590.5,453.9496,594.5,462.9496" style="stroke: #A80036; stroke-width: 1.0;"/><!--link NDF to PN--><path d="M621.8258,409.1762 C645.0487,423.7735 678.4047,444.7401 702.7973,460.0726 " fill="none" id="NDF-PN" style="stroke: #A80036; stroke-width: 1.0;"/><polygon fill="#A80036" points="707.2432,462.8671,701.7522,454.691,703.01,460.2062,697.4948,461.4641,707.2432,462.8671" style="stroke: #A80036; stroke-width: 1.0;"/><!--link NDF to Pin--><path d="M579.2873,409.386 C566.8681,423.5793 549.2704,443.6909 536.0301,458.8227 " fill="none" id="NDF-Pin" style="stroke: #A80036; stroke-width: 1.0;"/><polygon fill="#A80036" points="532.4191,462.9496,541.356,458.8105,535.7117,459.1868,535.3354,453.5424,532.4191,462.9496" style="stroke: #A80036; stroke-width: 1.0;"/><!--link QR to AuthLog--><path d="M589.7584,497.386 C585.9536,511.3367 580.5895,531.0051 576.4884,546.0424 " fill="none" id="QR-AuthLog" style="stroke: #A80036; stroke-width: 1.0;"/><polygon fill="#A80036" points="575.1501,550.9496,581.3772,543.3192,576.4657,546.1258,573.6591,541.2143,575.1501,550.9496" style="stroke: #A80036; stroke-width: 1.0;"/><!--link PN to AuthLog--><path d="M702.4898,497.1762 C675.0601,511.8946 635.5623,533.0885 606.9282,548.4531 " fill="none" id="PN-AuthLog" style="stroke: #A80036; stroke-width: 1.0;"/><polygon fill="#A80036" points="602.4294,550.8671,612.2511,550.1362,606.8352,548.5029,608.4684,543.087,602.4294,550.8671" style="stroke: #A80036; stroke-width: 1.0;"/><!--link Pin to AuthLog--><path d="M527.9711,497.386 C536.4463,511.458 548.4253,531.3476 557.5112,546.4337 " fill="none" id="Pin-AuthLog" style="stroke: #A80036; stroke-width: 1.0;"/><polygon fill="#A80036" points="560.231,550.9496,559.014,541.1762,557.6513,546.6665,552.161,545.3037,560.231,550.9496" style="stroke: #A80036; stroke-width: 1.0;"/><!--link AuthLog to #65--><path d="M560.5157,585.0187 C552.368,598.9068 541.0485,618.2015 533.748,630.6454 " fill="none" id="AuthLog-#65" style="stroke: #A80036; stroke-width: 1.0;"/><polygon fill="#A80036" points="531.0701,635.2101,539.0744,629.4716,533.6002,630.8975,532.1743,625.4233,531.0701,635.2101" style="stroke: #A80036; stroke-width: 1.0;"/><text fill="#000000" font-family="sans-serif" font-size="11" lengthAdjust="spacingAndGlyphs" textLength="0" x="533.5759" y="620.3677"/><!--link #65 to FormPop--><path d="M515.9061,644.6717 C476.186,650.9687 337.4097,673.2414 318.5,680 C306.5082,684.286 305.0537,688.6441 293.5,694 C279.5159,700.4825 264.0493,706.6947 249.579,712.116 " fill="none" id="#65-FormPop" style="stroke: #A80036; stroke-width: 1.0;"/><polygon fill="#A80036" points="244.7135,713.9234,254.5431,714.539,249.4006,712.1823,251.7573,707.0398,244.7135,713.9234" style="stroke: #A80036; stroke-width: 1.0;"/><text fill="#000000" font-family="sans-serif" font-size="11" lengthAdjust="spacingAndGlyphs" textLength="42" x="319.5" y="691.2104">Sucess</text><!--link #65 to FM--><path d="M522.9321,651.4777 C518.5167,661.7426 510.5867,679.4623 502.5,694 C499.6504,699.1229 496.3586,704.491 493.144,709.4994 " fill="none" id="#65-FM" style="stroke: #A80036; stroke-width: 1.0;"/><polygon fill="#A80036" points="490.2284,713.9805,498.4895,708.6182,492.9552,709.7895,491.7839,704.2553,490.2284,713.9805" style="stroke: #A80036; stroke-width: 1.0;"/><text fill="#000000" font-family="sans-serif" font-size="11" lengthAdjust="spacingAndGlyphs" textLength="38" x="510.5" y="691.2104">Failure</text><!--link #50 to Recov--><path d="M604.1488,311.7616 C637.2128,321.2247 747.8687,352.8952 819.8725,373.5032 " fill="none" id="#50-Recov" style="stroke: #A80036; stroke-width: 1.0;"/><polygon fill="#A80036" points="824.9883,374.9674,817.4364,368.6453,820.1813,373.5915,815.2351,376.3365,824.9883,374.9674" style="stroke: #A80036; stroke-width: 1.0;"/><text fill="#000000" font-family="sans-serif" font-size="11" lengthAdjust="spacingAndGlyphs" textLength="28" x="748.5" y="352.2104">false</text><!--link Recov to Social--><path d="M884.5,409.386 C884.5,423.2154 884.5,442.6635 884.5,457.6491 " fill="none" id="Recov-Social" style="stroke: #A80036; stroke-width: 1.0;"/><polygon fill="#A80036" points="884.5,462.9496,888.5,453.9496,884.5,457.9496,880.5,453.9496,884.5,462.9496" style="stroke: #A80036; stroke-width: 1.0;"/><!--link Recov to Mnemonic--><path d="M902.2811,409.386 C916.9211,423.7006 937.7178,444.0352 953.2371,459.2096 " fill="none" id="Recov-Mnemonic" style="stroke: #A80036; stroke-width: 1.0;"/><polygon fill="#A80036" points="957.0621,462.9496,953.4237,453.7974,953.4871,459.4539,947.8306,459.5174,957.0621,462.9496" style="stroke: #A80036; stroke-width: 1.0;"/><!--
@startuml
skinparam BoxPadding 50
(*) - -> "Downloads App"
if "New User" then 
    - -> [true] "New User Registeration"
        if "Login Using 3rd Party" then
            - -> [true] "3rd Party Verification" as 3RD
            3RD- -> [We Chat] "We Chat Flow" as WCF
                WCF - -> "WC Process"  as WCP
                WCP - ->"Form With Pulled Data" as FormPop 
            3RD- -> [Ali Pay] "AliPay Flow" as APF 
                APF - ->"AP Process" as APP  
                APP - ->FormPop
        else 
            - ->[false] "Phone or Email" as PE
            
            PE- -> [Phone] "Phone Verification" as PV
            PV - -> "2FA" 
            if "ID verifiation Telco"
                - -> [true] FormPop 
            else 
                - -> [false] "Manual Entry" as ME
            
            endif
            
            PE - -> [Email] "Email Verification" as EV 
            EV - -> "Email Authorization" as EA 

            if "" then
                - -> [Failure] "Failure Message" as FM 
            else
                - -> [Success] ME 
            endif
                
        endif

else
    - ->[false] "Existing User FLow"        
    if "Access to Auth"
        - -> [true] "New Device Flow" as NDF
        NDF - -> "QR" as QR
        NDF - -> "Push Note on Existing Device" as PN
        NDF - -> "Enter Pin" as Pin
        QR - -> "Authorize Login" as AuthLog
        PN - -> "Authorize Login" as AuthLog
        Pin - -> "Authorize Login" as AuthLog

        if "" then
            - -> [Sucess] FormPop 
        else
            - -> [Failure] FM 
        endif
    else 
        - -> [false] "Recover Device Flow" as Recov
        Recov - -> Social 
        Recov - -> Mnemonic 

    endif

@enduml

PlantUML version 1.2018.13(Mon Nov 26 12:11:51 EST 2018)
(GPL source distribution)
Java Runtime: OpenJDK Runtime Environment
JVM: OpenJDK 64-Bit Server VM
Java Version: 11.0.4+11-post-Ubuntu-1ubuntu219.04
Operating System: Linux
OS Version: 5.0.0-24-generic
Default Encoding: UTF-8
Language: en
Country: US
--></g></svg>